<svg xmlns="http://www.w3.org/2000/svg" viewBox="0 0 57.55 57.55"><defs><style>.cls-1{fill:#fff;}.cls-2{fill:#0e4581;}</style></defs><g id="Calque_2" data-name="Calque 2"><g id="Calque_1-2" data-name="Calque 1"><circle class="cls-1" cx="28.77" cy="28.77" r="28.77"></circle><path class="cls-2" d="M14.61,33.45a1.33,1.33,0,0,0,.64.63A3,3,0,0,0,14.61,33.45Z"></path><path class="cls-2" d="M15.66,31.78a3.94,3.94,0,0,0-.12-1,4.61,4.61,0,0,1,0,1.18,2.48,2.48,0,0,0,.13.77S15.68,32.41,15.66,31.78Z"></path><path class="cls-2" d="M16.74,39.61a3.92,3.92,0,0,1,.4-.27.91.91,0,0,0,.33-.36A2.05,2.05,0,0,0,16.74,39.61Z"></path><path class="cls-2" d="M16.48,33.41a4.72,4.72,0,0,0-.16.83,5.24,5.24,0,0,0,.33-1.52A3.93,3.93,0,0,1,16.48,33.41Z"></path><path class="cls-2" d="M19,36.14a6.29,6.29,0,0,1-.1.72,2,2,0,0,0,0,.84A4.71,4.71,0,0,0,19,36.14Z"></path><path class="cls-2" d="M17.2,33.74a2.2,2.2,0,0,0-.39.89A3.46,3.46,0,0,0,17.2,33.74Z"></path><path class="cls-2" d="M17.74,35.91a1.92,1.92,0,0,0,.05-.75,2.8,2.8,0,0,1-.14.68,1.34,1.34,0,0,0,0,.76A1.92,1.92,0,0,1,17.74,35.91Z"></path><path class="cls-2" d="M30.25,47.13a3.09,3.09,0,0,0,.52-1.36,1.31,1.31,0,0,0,.87.42,4.45,4.45,0,0,0,.28-1.58,1.78,1.78,0,0,0,.84.11,3.26,3.26,0,0,0-.88-3,10.28,10.28,0,0,1-1-1.48c0-.08,0-.11,0-.28s.13-.29.32-.08a.54.54,0,0,0,.34.23,1.35,1.35,0,0,0,.5.48,1.48,1.48,0,0,1,.51.41c.07-.17.23-.05.38,0s.27-.06.63,0,.58.09.71,0,.28-.06.54,0l.47.16a.79.79,0,0,0,.48.15l-.32.43-.7.21-.88,1.14.89.06,0,.66-.06.05-.59,1.47.86-.34.23,1.23.59-1.48,0-.8.1,0L36,45.15l.65-1.43,0-1L37,42a.71.71,0,0,0,.23-.46c.13.26.39.26.6,0a1.24,1.24,0,0,0,.14-.78c.22,0,.48-.2.51-.65a.69.69,0,0,0-.34-.63l.38-.84,2.6-3.51.27.43.5-1.48.52-.7.3.46.8-2.42-1.77,1,.3.47-.49.66-.91.47.32-.72.38.34L41.58,32l.31-.62.36.36.43-2.58-1.59,1.43.37.37-.22.46-.36.34.24-2.26-1.49,1.65.38.31-.41,1-.92,1,.39.3-1.84,4.64a.57.57,0,0,0-.79.31A1.33,1.33,0,0,0,36.62,40l0,.07s0,0,0,0c-.16-.26-.32-.23-.53-.24a.39.39,0,0,1-.29-.2s-.13,0-.42-.1a.77.77,0,0,0-.45-.12,1.68,1.68,0,0,0-.3-.62,7.77,7.77,0,0,1-.62-.83.77.77,0,0,1,0-.26,1.15,1.15,0,0,1-.62-.42A.46.46,0,0,0,33,37c-.18,0-.18-.19-.27-.33a2.06,2.06,0,0,0-.56-.34v-.71a1.46,1.46,0,0,0,.6.51,3.08,3.08,0,0,0,.28-.77,1.74,1.74,0,0,0,.84.6A4.07,4.07,0,0,0,34,35a2.18,2.18,0,0,0,.8.4,1.81,1.81,0,0,0,.12-1,2.82,2.82,0,0,0,.9.24c.2-.31,0-1.15,0-1.15.28.27,1,.1,1,.1a2.08,2.08,0,0,0-.17-1.14c.65.29,1.18-.48,1.18-.48a5.61,5.61,0,0,0-.3-1,1.56,1.56,0,0,0,1.08-.6,2.41,2.41,0,0,0-.55-1.1,2.42,2.42,0,0,0,1-.79,2.69,2.69,0,0,0-.66-1,4.37,4.37,0,0,0,1-.95,2.61,2.61,0,0,0-.88-.88,2.86,2.86,0,0,0,.93-1,2,2,0,0,0-.78-.66,3.79,3.79,0,0,0,.81-1,2.08,2.08,0,0,0-.76-.54A3.27,3.27,0,0,0,41,20.46a3.94,3.94,0,0,1-.57-.31,3.58,3.58,0,0,0,.87-1.63,1.08,1.08,0,0,1-.48-.15,1.51,1.51,0,0,0,.6-.93A4.61,4.61,0,0,0,41.55,16L40,16.92l0-.36a2.46,2.46,0,0,1-.84.84,34.58,34.58,0,0,0-3.89,2.34c-1.26,1-2.5,2.83-2.5,4.16s.65,2.7.68,3.73-.58,2.13-1.37,2.15c-.29,0-.37-.34-.39-.54a1.29,1.29,0,0,0-.16-.47l.11-.08a6.9,6.9,0,0,1-.75-1.32c-.08-.37-.21-1.51-.21-1.51l.23,0a2.06,2.06,0,0,1-.25-.94.44.44,0,0,0,.22.14,1.32,1.32,0,0,1-.18-.62c0-.43-.26-.52-.26-.52a.5.5,0,0,0,.44-.41s-.26.12-.33-.06a1.67,1.67,0,0,0-1.31-1.09c-.89-.1-1.2,0-1.26.09s-.09.21-.24.25-.13.08-.34.13a1.08,1.08,0,0,0-1,.88,1.84,1.84,0,0,0,.46,1.88A1.62,1.62,0,0,1,27,24.7a2.55,2.55,0,0,1,.42.14.37.37,0,0,1,.25.38c0,.15,0,.46,0,1s-.06.79-.22,1a5.52,5.52,0,0,1-.78.87l.06.13c-.62.74-.49,1.56-1.28,1.56S24,28.65,24.05,27.63s.68-2.39.68-3.73-1.24-3.19-2.5-4.16a35.56,35.56,0,0,0-3.88-2.34,2.43,2.43,0,0,1-.85-.84l0,.36L16,16a4.61,4.61,0,0,0,.12,1.44,1.51,1.51,0,0,0,.6.93,1.08,1.08,0,0,1-.48.15,3.58,3.58,0,0,0,.87,1.63,3.51,3.51,0,0,1-.56.31,3.24,3.24,0,0,0,2.25,2.1,2.08,2.08,0,0,0-.76.54,3.79,3.79,0,0,0,.81,1,2,2,0,0,0-.78.66,2.86,2.86,0,0,0,.93,1,2.71,2.71,0,0,0-.88.88,4.37,4.37,0,0,0,1,.95,2.69,2.69,0,0,0-.66,1,2.42,2.42,0,0,0,1,.79,2.41,2.41,0,0,0-.55,1.1,1.56,1.56,0,0,0,1.08.6,5.25,5.25,0,0,0-.29,1s.52.77,1.17.48a2.08,2.08,0,0,0-.17,1.14s.73.17,1-.1c0,0-.16.84,0,1.15a2.82,2.82,0,0,0,.9-.24,1.94,1.94,0,0,0,.12,1,2.26,2.26,0,0,0,.81-.4,3.76,3.76,0,0,0,.16.94,1.74,1.74,0,0,0,.84-.6,3.08,3.08,0,0,0,.28.77,1.46,1.46,0,0,0,.6-.51v.59c-.47.42-1.9,1.51-1.9,1.51s0,.23-.15.45a.94.94,0,0,0-.2.36,2.16,2.16,0,0,0-.61.91.5.5,0,0,0-.46.19c-.22-.13-.59.17-.83.12a1.14,1.14,0,0,1-.35-.18c.14-.88-.24-1.2-.68-1.14s-.51.62-.51.62L19.58,39a.53.53,0,0,0,0-.79c-.2-.08-.38.2-.38.2a.22.22,0,0,1,.06-.15.13.13,0,0,0,.05-.12c1.26-.8,1.27-2.93,1.27-2.93a1.42,1.42,0,0,0-1,.47,11.33,11.33,0,0,0-.31-1.42A4.4,4.4,0,0,0,18.38,37a.2.2,0,0,0-.32,0,.46.46,0,0,0-.08.53.15.15,0,0,1,0,.18c-.3-.28-.16-.68.07-1A2.5,2.5,0,0,0,18.27,35c-.11-.65-.21-1.2-.21-1.2a2.35,2.35,0,0,0-.79,2.28c-.25-.08-.35.27-.35.27a1.18,1.18,0,0,1,0-.86.57.57,0,0,0,0-.49,3.83,3.83,0,0,0,1-3,1.36,1.36,0,0,1-.76.62A5.37,5.37,0,0,0,17,31.19a3.5,3.5,0,0,0-1,1.84.22.22,0,0,0-.22,0,3.3,3.3,0,0,0,.28-1.65,7.94,7.94,0,0,0-.53-2.13c-.86,1.82-.68,2.47-.36,3.34s.2,1.12.2,1.12a2.47,2.47,0,0,0-2-1.58c.52,1.93,1.25,2.47,1.66,2.48s.48.2.48.2-.17.26-.17.26a5.12,5.12,0,0,0-1.48-.15A3.68,3.68,0,0,0,15,36.57a4,4,0,0,1-.59.35c1.12,1.32,1.89,1.12,2,1.09a6.44,6.44,0,0,0-1.37,1,4.78,4.78,0,0,0,1.07.53,9.67,9.67,0,0,0-.42,1A2.39,2.39,0,0,0,17.44,40a6.89,6.89,0,0,0-.36,2.25,1.26,1.26,0,0,1,.33-.34,1.26,1.26,0,0,0,.3-.24,7,7,0,0,0,.38,1.35,4,4,0,0,0,.76-2.49l.08,0c.18.24.36.17.36.17a1,1,0,0,0,.14.81.34.34,0,0,0,.59,0s.11.61.53.56.41-.49.41-.49a4.05,4.05,0,0,1,.87,3.5,3.12,3.12,0,0,0,.73,1.18c.35.34.63.23.56-.09s-.17-.94-.48-2.46a6.8,6.8,0,0,0-1-2.48l.28-.13a1.21,1.21,0,0,0,.62,0,1.8,1.8,0,0,1,.73,0,.67.67,0,0,1,.5-.12c.35,0,.45-.08.45-.08a.32.32,0,0,0,.38,0c.24-.11.31.08.31.08a1.34,1.34,0,0,1,.51-.49c.39-.24.46-.44.46-.44s.13-.05.22-.11.11.1.11.1.19-.35.3-.35.14.44.14.44a12.65,12.65,0,0,1-1,1.49,3.21,3.21,0,0,0-.88,3,1.79,1.79,0,0,0,.84-.11,4.59,4.59,0,0,0,.27,1.58,1.34,1.34,0,0,0,.88-.42,2.94,2.94,0,0,0,.52,1.36,3.76,3.76,0,0,0,.82-.75,4.15,4.15,0,0,0,.68,1.06,4.55,4.55,0,0,0,.68-1.06A3.76,3.76,0,0,0,30.25,47.13Zm2.4-11.35c-.27,0-.44-.43-.44-.43v-.73c.13.35.23.66.23.66a3.63,3.63,0,0,0-.12-.75.64.64,0,0,1,.07-.48A2.15,2.15,0,0,1,32.65,35.78Zm-.09-3a.58.58,0,0,1,0-.46c.07.21.18.4.3.74a.85.85,0,0,1,0,.72c-.24,0-.44-.15-.52-.57s-.13-.74-.13-.74.15,0,.28.4a3.32,3.32,0,0,0,.28.58A6.25,6.25,0,0,0,32.56,32.77Zm2.32-10.19c.18-.17.38-.23.47-.49a.67.67,0,0,0,0-.46l.68-.36c.17.63-.58.94-.58.94a.49.49,0,0,1,.1.45.62.62,0,0,1-.4.4.6.6,0,0,1,.12.53c-.07.43-.69.4-.69.4.06-.16-.11-.51-.11-.51a.68.68,0,0,0,.36-.38S34.7,22.75,34.88,22.58Zm1.42-1.39a1.67,1.67,0,0,0-.13-.31s.38-.22,1-.51a.83.83,0,0,1,1,.06,1.73,1.73,0,0,1-.84.89,9.25,9.25,0,0,1-1,.39.8.8,0,0,0,.06-.31,6.55,6.55,0,0,0,1.23-.75A12,12,0,0,0,36.3,21.19Zm.41.75a.65.65,0,0,1,.73.24,1.34,1.34,0,0,1-.41.54,5.58,5.58,0,0,1-1.55.53c.11-.05.18-.29.18-.29a2.3,2.3,0,0,1,.66-.3,1.38,1.38,0,0,0,.62-.34,4.4,4.4,0,0,0-1.1.36c0-.24-.05-.32-.05-.32C36.07,22.28,36.26,22.09,36.71,21.94ZM33.28,32.43a.42.42,0,0,1,0-.47s.19.28.39.6a1.17,1.17,0,0,1,.13.87.49.49,0,0,1-.54-.31,9.19,9.19,0,0,1-.47-1s.17,0,.42.41a2.41,2.41,0,0,0,.39.54S33.43,32.71,33.28,32.43Zm.19-.69s.16,0,.46.32a2.52,2.52,0,0,0,.44.45,7,7,0,0,0-.38-.62.35.35,0,0,1,0-.43l.45.52a1.18,1.18,0,0,1,.21.87.48.48,0,0,1-.58-.2A8.1,8.1,0,0,1,33.47,31.74Zm.64-.68s.16-.06.47.27a1.78,1.78,0,0,0,.47.4s-.22-.34-.41-.57a.35.35,0,0,1-.06-.43l.48.47a1.13,1.13,0,0,1,.25.85.47.47,0,0,1-.59-.14A7.13,7.13,0,0,1,34.11,31.06Zm1.12-.12a6.07,6.07,0,0,0-.58-.46.29.29,0,0,1,.47-.07,2,2,0,0,0,.58.35,2.48,2.48,0,0,0-.58-.53.69.69,0,0,1-.2-.54,3.76,3.76,0,0,1,.72.51A1.3,1.3,0,0,1,36,31,.67.67,0,0,1,35.23,30.94Zm.5-1.16a5.35,5.35,0,0,0-.71-.3.35.35,0,0,1,.5-.2,2.25,2.25,0,0,0,.67.18,2.12,2.12,0,0,0-.7-.37.63.63,0,0,1-.31-.49,3.91,3.91,0,0,1,.86.31,1.2,1.2,0,0,1,.51.75A.79.79,0,0,1,35.73,29.78ZM34.54,27.3a1,1,0,0,1,.42,0c.25.06.3.56,0,.64a.56.56,0,0,1-.32,0A1,1,0,0,0,34.54,27.3Zm1.39,1.2a4.38,4.38,0,0,0-.73-.16.39.39,0,0,1,.47-.3,2.29,2.29,0,0,0,.69,0,1.89,1.89,0,0,0-.74-.22.56.56,0,0,1-.36-.42,3.74,3.74,0,0,1,.89.12,1.05,1.05,0,0,1,.58.65A.86.86,0,0,1,35.93,28.5Zm.13-1.35a4.64,4.64,0,0,0-.75,0s.06-.43.46-.41a1.93,1.93,0,0,0,.69-.07,1.69,1.69,0,0,0-.76-.1c-.3,0-.4-.37-.4-.37a3.25,3.25,0,0,1,.91,0c.43.05.64.56.64.56S36.52,27.21,36.06,27.15Zm0-1.42a7.51,7.51,0,0,0-.75.08.47.47,0,0,1,.43-.44,2.11,2.11,0,0,0,.69-.15,2.17,2.17,0,0,0-.77,0,.49.49,0,0,1-.43-.19,2.36,2.36,0,0,1,.92-.25.94.94,0,0,1,.69.36A.92.92,0,0,1,36.09,25.73Zm.25-1.34c-.41.07-.9.18-.9.18a.59.59,0,0,0-.07-.37,2.58,2.58,0,0,0,1.08-.32,3.65,3.65,0,0,0-1.08.09.51.51,0,0,0,.1-.3c1.1-.51,1.47,0,1.47,0S36.82,24.3,36.34,24.39Zm-1.85-.2a.93.93,0,0,1,.59,0,.43.43,0,0,1-.17.68,1.48,1.48,0,0,1-.42,0,.73.73,0,0,0-.1-.4A.59.59,0,0,0,34.49,24.19Zm-.06,1.08a.82.82,0,0,1,.61,0,.38.38,0,0,1-.09.66,3.64,3.64,0,0,1-.44.07.73.73,0,0,0-.12-.43A.49.49,0,0,0,34.43,25.27Zm.52,1c.28,0,.36.59.07.71a1.09,1.09,0,0,1-.43,0,.8.8,0,0,0-.15-.67A1.31,1.31,0,0,1,35,26.25Zm-.36,1.91a.78.78,0,0,1,.3.08c.27.12.24.63,0,.65a.81.81,0,0,1-.31-.09.83.83,0,0,0-.08-.36C34.58,28.37,34.59,28.16,34.59,28.16Zm.07,1.09c.25.17.18.67-.1.63a.7.7,0,0,1-.3-.15.65.65,0,0,0,0-.38c.14,0,.17-.25.17-.25A1.25,1.25,0,0,1,34.66,29.25Zm-.22,1c.11.36-.17.58-.38.45a.77.77,0,0,1-.3-.41.29.29,0,0,0,.27-.1.72.72,0,0,0,.18-.29A.62.62,0,0,1,34.44,30.26Zm-.6.75c0,.36-.22.51-.41.34a.92.92,0,0,1-.23-.45.27.27,0,0,0,.27,0,.56.56,0,0,0,.19-.23A.63.63,0,0,1,33.84,31Zm-.62.52c0,.33-.25.46-.4.28a.94.94,0,0,1-.17-.45.26.26,0,0,0,.24,0,.52.52,0,0,0,.19-.19A.63.63,0,0,1,33.22,31.53Zm-1,2.69v-.81A1.08,1.08,0,0,1,32.21,34.22Zm1.47,1.38s-.44-.05-.71-.76a6.82,6.82,0,0,1-.3-.88.54.54,0,0,1,.42.39,2.37,2.37,0,0,0,.37.7,1.84,1.84,0,0,0-.24-.68,1,1,0,0,1,0-.83s.22.41.42.87A2.14,2.14,0,0,1,33.68,35.6Zm1-.5a.78.78,0,0,1-.69-.42,5.85,5.85,0,0,1-.5-1A.52.52,0,0,1,34,34a2.48,2.48,0,0,0,.52.77,3.38,3.38,0,0,0-.32-.64,1.06,1.06,0,0,1-.16-.94s.3.4.53.79A1.65,1.65,0,0,1,34.71,35.1Zm.92-.69a.78.78,0,0,1-.73-.4c-.27-.4-.55-.9-.55-.9a.53.53,0,0,1,.49.24,3.92,3.92,0,0,0,.6.67l-.4-.61a1,1,0,0,1-.17-.92,4.7,4.7,0,0,1,.62.78A1.51,1.51,0,0,1,35.63,34.41Zm1-1a.82.82,0,0,1-.84-.25c-.33-.34-.74-.79-.74-.79s.26-.24.61.12a4.15,4.15,0,0,0,.66.57,3.68,3.68,0,0,0-.68-.76.94.94,0,0,1-.14-.75,5.61,5.61,0,0,1,.82.76A1.72,1.72,0,0,1,36.63,33.41Zm1-1.3a.93.93,0,0,1-1,0l-.9-.68a.47.47,0,0,1,.69-.06,3.26,3.26,0,0,0,.81.44,3.49,3.49,0,0,0-.86-.68.9.9,0,0,1-.3-.68,4.27,4.27,0,0,1,1.09.6A1.62,1.62,0,0,1,37.62,32.11Zm.75-1.69a1,1,0,0,1-1,.21l-1.08-.48a.53.53,0,0,1,.7-.24,3.45,3.45,0,0,0,1,.26,4.22,4.22,0,0,0-1.06-.54.78.78,0,0,1-.39-.61,5,5,0,0,1,1.27.4A1.47,1.47,0,0,1,38.37,30.42Zm.41-1.87a1.14,1.14,0,0,1-1,.41c-.46-.11-1.15-.22-1.15-.22a.5.5,0,0,1,.59-.4,3.63,3.63,0,0,0,1.09.05,4.12,4.12,0,0,0-1.22-.3c-.36-.09-.44-.54-.44-.54a5.44,5.44,0,0,1,1.42.12C38.6,27.83,38.78,28.55,38.78,28.55Zm.27-1.86s-.4.61-1,.54a8.46,8.46,0,0,0-1.32,0,.56.56,0,0,1,.56-.5,6,6,0,0,0,1.25-.13,4.84,4.84,0,0,0-1.34-.08c-.36,0-.48-.45-.48-.45a7.16,7.16,0,0,1,1.5-.08C38.8,26.06,39.05,26.69,39.05,26.69Zm.11-1.93a1.38,1.38,0,0,1-.91.75,10.41,10.41,0,0,1-1.38.15.7.7,0,0,1,.6-.51,5.65,5.65,0,0,0,1.2-.28,5.13,5.13,0,0,0-1.33.08.69.69,0,0,1-.58-.3,8,8,0,0,1,1.56-.29A1.13,1.13,0,0,1,39.16,24.76Zm0-1.6a1.46,1.46,0,0,1-.9.8A10.11,10.11,0,0,1,37,24.2a.73.73,0,0,1,.59-.55,3.74,3.74,0,0,0,1.05-.35,3.73,3.73,0,0,0-1.19.16.67.67,0,0,1-.59-.27,6.29,6.29,0,0,1,1.41-.39A1.12,1.12,0,0,1,39.16,23.16Zm1.41-2.54a2.38,2.38,0,0,1-.76,1.12,18.26,18.26,0,0,1-2.37.89,2.34,2.34,0,0,0,.31-.48A15,15,0,0,0,39.89,21s-1.32.49-2.15.89a3.08,3.08,0,0,0-.41-.23s1.62-.73,2.24-1.05A.88.88,0,0,1,40.57,20.62Zm.37-1.82c-.28,1.38-2.84,2.08-2.84,2.08a2.18,2.18,0,0,0,.29-.45,9.51,9.51,0,0,0,1.6-1l-1.56.78-.49-.2s1.18-.66,1.94-1S40.94,18.8,40.94,18.8Zm-1.12-.68.39-.25a.5.5,0,0,0,.27-.3l-.3.16a.7.7,0,0,1-.31.09c0-.18.05-.36.05-.5l.71-.38a1.73,1.73,0,0,0,.71-.59s.06,1.33-.55,1.7-.7.32-1.06.58C39.73,18.63,39.78,18.4,39.82,18.12Zm-7.61,12a2,2,0,0,0,1.45-1.6c.23-1.31-.58-2.74-.6-4.39s1.45-3.76,4-5.14c.53-.29,1.21-.65,1.77-1a3.07,3.07,0,0,0,.83-.66s.1,1.28-.42,1.55l-2.85,1.52c-.21.11-.25-.24-.25-.24a18,18,0,0,0,2.93-1.86L35.8,20.19a.2.2,0,0,0,.1.11.22.22,0,0,1,.1.08.74.74,0,0,1-.11.68c-.25.28-.5.17-1,.56a.14.14,0,0,0,.12.05c.06,0,.12.12.06.32s-.27.25-.43.3a.89.89,0,0,0-.28.18.34.34,0,0,1,.23.39c0,.33-.28.47-.61.54a.8.8,0,0,1,.28.6.62.62,0,0,1-.31.5.49.49,0,0,1,.23.34.78.78,0,0,1-.25.75.35.35,0,0,1,.3.36.73.73,0,0,1-.19.56.47.47,0,0,1,.31.38.56.56,0,0,1-.23.52.69.69,0,0,1,.27.44.63.63,0,0,1-.3.53.6.6,0,0,1,.13.54.4.4,0,0,1-.33.31.63.63,0,0,1,0,.58.32.32,0,0,1-.38.19s0,.41-.14.57-.42,0-.42,0a.57.57,0,0,1-.22.5c-.25.15-.41-.14-.41-.14s0,.43-.18.42Zm.08,1.53a.59.59,0,0,0,.15-.21,1.36,1.36,0,0,1,.14.5c0,.3-.32.52-.36.26S32.19,31.73,32.29,31.66ZM30.15,46.77a1.74,1.74,0,0,1-.61-1.32c-.05-.76-.38-3.72-.38-3.72a.41.41,0,0,0,.19.05c.31,2.22.74,4.26.74,4.26-.22-2-.61-4.34-.61-4.34l.17-.17s.66,3.1.79,3.83A2.19,2.19,0,0,1,30.15,46.77Zm-2.77-6.3c.07.32.14.37.14.37v-.2s.17,0,.19.2a.34.34,0,0,1-.09.27s-.38,0-.49-.9C27.13,40.21,27.3,40.16,27.38,40.47Zm-.71-1.24s.16,0,.24.26a1,1,0,0,0,.14.37v-.44a.2.2,0,0,1,.19.21.77.77,0,0,1-.08.49S26.77,40.11,26.67,39.23Zm.7.37s.16-.05.24.26a2.51,2.51,0,0,0,.12.42l0-.48s.17,0,.19.2a.87.87,0,0,1-.12.52S27.47,40.48,27.37,39.6ZM28.06,41c.07.25.12.27.12.27V41a.29.29,0,0,1,.19.26.34.34,0,0,1-.08.27s-.36.09-.47-.79C27.82,40.7,28,40.65,28.06,41Zm0-.94s.16-.05.23.25a2.12,2.12,0,0,0,.12.4l0-.46s.15,0,.18.19a.88.88,0,0,1-.11.5S28.19,40.86,28.09,40Zm.61,1.23a.66.66,0,0,0,.08.24.58.58,0,0,0,.07-.24.22.22,0,0,1,.2-.19s0,.48-.27.6c-.28-.12-.28-.6-.28-.6A.22.22,0,0,1,28.7,41.25ZM29,40.9a.74.74,0,0,1-.11-.5c0-.2.18-.19.18-.19v.46a2.12,2.12,0,0,0,.12-.4c.08-.3.24-.25.24-.25C29.36,40.86,29,40.9,29,40.9Zm.7-.38a.87.87,0,0,1-.12-.52c0-.21.19-.2.19-.2l0,.48a2.51,2.51,0,0,0,.12-.42c.08-.31.25-.26.25-.26C30.08,40.48,29.73,40.52,29.73,40.52Zm.69-.31c-.11.88-.49.9-.49.9a.38.38,0,0,1-.09-.27c0-.21.19-.2.19-.2v.2s.07-.05.15-.37S30.42,40.21,30.42,40.21Zm-.69.49c-.11.88-.46.79-.46.79a.31.31,0,0,1-.09-.27.29.29,0,0,1,.19-.26v.27s.06,0,.12-.27S29.73,40.7,29.73,40.7Zm1.72,5.22a.93.93,0,0,1-.72-.7l-1-3.91a.72.72,0,0,0,.25,0,28.94,28.94,0,0,0,1.25,3.88s-.81-2.88-1.15-4a.59.59,0,0,0,.17-.15S31,43,31.38,43.87A2.35,2.35,0,0,1,31.45,45.92Zm.62-3.56a2.73,2.73,0,0,1,.49,2.16c-.23,0-.59.1-1-.87S30.36,41,30.36,41c0-.26.16-.24.16-.24a28.22,28.22,0,0,0,1.73,3.16,26.56,26.56,0,0,0-1.7-3.24.64.64,0,0,1,.07-.34A16.43,16.43,0,0,0,32.07,42.36ZM30.4,40.12a.71.71,0,0,1-.09-.49.2.2,0,0,1,.19-.21v.44s.07-.06.14-.37.24-.26.24-.26C30.78,40.11,30.4,40.12,30.4,40.12Zm1.17-.34a2,2,0,0,1-.47-.33s0-.26.21-.13.32.26.49.19a.63.63,0,0,0-.25-.21.63.63,0,0,0,.19-.06.17.17,0,0,1,.17,0,.62.62,0,0,1,.11.53A.41.41,0,0,1,31.57,39.78Zm-.26-.85.47-.24s0,.26-.11.34S31.31,38.93,31.31,38.93Zm.63,1.16a.24.24,0,0,1,.36,0,.54.54,0,0,1,.21.42A2.18,2.18,0,0,1,31.94,40.09Zm.43-.26c-.21-.09-.18-.39-.18-.39a2,2,0,0,0,.57.23,2.15,2.15,0,0,0-.41-.39.41.41,0,0,1,.4,0c.17.12.14.47.14.47C32.8,39.92,32.58,39.93,32.37,39.83Zm.88.74s-.1.16-.36.06a.32.32,0,0,1-.21-.34.68.68,0,0,0,.37.16.45.45,0,0,0-.24-.28s.1-.21.26-.07A.6.6,0,0,1,33.25,40.57Zm0-.73c-.21-.09-.25-.47-.25-.47a1.16,1.16,0,0,0,.38.21.62.62,0,0,0-.26-.33c.07-.13.21-.23.35-.07a1,1,0,0,1,.18.49C33.62,39.9,33.44,39.89,33.29,39.84Zm.54.68s-.08.19-.25.12a.24.24,0,0,1-.14-.27.93.93,0,0,0,.28.09.84.84,0,0,0-.29-.27s.21-.14.32,0A.53.53,0,0,1,33.83,40.52Zm.33.09c-.18,0-.15-.26-.15-.26a.69.69,0,0,0,.28,0s-.14-.24-.3-.27c0,0,.19-.13.31-.05s.11.25.11.36S34.34,40.65,34.16,40.61Zm1,5.16-.19-1-.7.27.39-1v.33l.38-.49-.12.27.66-.21v.71Zm1.38-3.11,0,1-.48,1-.15-1-.7.2.22-.47.14-.18,0-.23.07-.15.65-.45.21-.46a.33.33,0,0,0,.3.1Zm-.89,0,.23-.6.4-.54a.48.48,0,0,0,.06.22l-.24.61Zm2.63-2.33a.39.39,0,0,1-.49.21c.17.68-.06,1-.28,1s-.41-.52-.41-.52c.08.54-.1.87-.28.91a.37.37,0,0,1-.43-.36.67.67,0,0,1,.13-.48c0,.23,0,.52.15.56s.3,0,.3-.28a3.73,3.73,0,0,0-.11-.67l.26-.28a1.8,1.8,0,0,1,.19.63c0,.15.14.2.22.14a.39.39,0,0,0,.14-.45,1.26,1.26,0,0,0-.34-.54l.33-.36a1,1,0,0,1,.26.51c0,.15.23.1.24-.22a.59.59,0,0,0-.31-.49l.07-.07A.57.57,0,0,1,38.32,40.36Zm-1-.44-.11.14a.68.68,0,0,0-.17-.1l.14-.15A1.15,1.15,0,0,0,37.36,39.92ZM37,39.27c0-.12.06-.21.21,0a1.74,1.74,0,0,1,.24.6A1.12,1.12,0,0,1,37,39.27Zm.57,1.29c.15.27.1.45,0,.51s-.11-.21-.16-.42a3.2,3.2,0,0,0-.23-.5A1.07,1.07,0,0,1,37.55,40.56Zm-.44-.31-.22.23a3,3,0,0,1,0-.32l.1-.11Zm-.22.73c.07.33,0,.48,0,.53s-.16,0-.19-.25a2.63,2.63,0,0,1,.13-.8A3.17,3.17,0,0,0,36.89,41Zm.56-1.4,0,0,.08.1-.07.09A.66.66,0,0,0,37.45,39.58Zm.27.1a.83.83,0,0,1,.35.24.3.3,0,0,1,0,.38A1,1,0,0,0,37.72,39.68Zm.34-.28a.19.19,0,0,0-.13,0l.35-.47Zm4.18-6.58-.27-.4,1.31-.7-.58,1.79-.26-.39-.35.49.16-.46-.38.19Zm-.23.63-.62,1.79-.26-.4L37.67,39.5l-.11,0a.8.8,0,0,0,0-.42l3.34-4.51-.26-.41Zm-4.18,5,1.7-4.28.29.23L38.22,38Zm2.94-4-.92,1.23.7-1.56Zm.53-3.92,1.2-1.07-.33,1.94-.31-.31-.21.42.09-.63-.24.22.12-.25Zm.27.72-.29,2L41,33l-1.49,3.28-.88,1.19,2.12-4.69-.31-.31ZM40,34.14l.14-1.33.12-.31.34.32Zm.3-1.75.22-.54.19.15Zm-.08-1-.34-.28L41,29.91l-.2,2-.33-.26-.28.69,0-.42-.34.35Zm-.93,2.37-.34-.28L40,32.27l-.22,2L39.49,34l-2,4.88a.73.73,0,0,0-.21-.32Zm-2.75,5.49c0-.52.29-.79.64-.67s.36.74.36.74l-.09.09s-.08-.33-.28-.42-.26.07-.22.28a.75.75,0,0,0,.23.42l-.29.29A1,1,0,0,1,36.49,39.27Zm.29.88h0a3.55,3.55,0,0,0-.19.62.92.92,0,0,0-.28.53l-.66.88-.2,1-.64.84,0-1-.71,0,.64-.84.71-.2ZM36.47,40l-.07.45a1.51,1.51,0,0,0-.24.34c-.15.26-.29.28-.4.18A5,5,0,0,0,36,40S36.37,39.9,36.47,40Zm-1.15.42c0-.28,0-.74.53-.46a1.73,1.73,0,0,1-.07.38c-.05.2,0,.47-.14.56s-.45-.12-.45-.12A.73.73,0,0,0,35.32,40.4Zm-.46-.46c.06-.22,0-.36.16-.32a.84.84,0,0,0,.25.09.37.37,0,0,1,0,.32,3.57,3.57,0,0,1-.21.67c-.07.1-.45,0-.42-.2S34.8,40.15,34.86,39.94Zm-.1-.14-.1.37a.15.15,0,0,1-.09-.19A.31.31,0,0,1,34.76,39.8Zm-.5-.94a1.07,1.07,0,0,1,.3.51.75.75,0,0,1,0,.38.45.45,0,0,1-.25,0,1.07,1.07,0,0,0,0-.39l.07,0s0-.09-.09-.21S34.16,39,34.26,38.86Zm-.12.38a.71.71,0,0,1,.1.4c-.05.18-.18.2-.28.14s-.18-.37-.18-.37c.17.13.23.13.23.13-.09-.21-.13-.32-.13-.32S34,39.12,34.14,39.24Zm-.2-.88a.6.6,0,0,1,.06.55c-.15.11-.42,0-.46-.09a.8.8,0,0,1,0-.33,1.16,1.16,0,0,0,.36.22.86.86,0,0,0-.33-.44C33.64,38.1,33.82,38.13,33.94,38.36Zm-.57-.62c.12.21.28.19.28.19-.21.18-.59,0-.59,0a3.13,3.13,0,0,0,0-.52A1,1,0,0,1,33.37,37.74Zm-.18.6a.56.56,0,0,1,0,.56.35.35,0,0,1-.46-.14.84.84,0,0,1,0-.33,1.36,1.36,0,0,0,.34.26,1,1,0,0,0-.42-.54C32.77,38,33,38,33.19,38.34Zm-1-1.66a1.24,1.24,0,0,1,.6.7c.08.29-.07.48-.24.42s-.21-.51-.21-.51a.87.87,0,0,0,.28.17,1,1,0,0,0-.29-.38A.4.4,0,0,1,32.19,36.68Zm0,1.36v-.53C32.4,38,32.21,38,32.21,38Zm-.27.56s.08-.07.21,0a.36.36,0,0,0,.22.08l-.18-.32s.08-.25.27-.09a.58.58,0,0,1,.06.66S31.8,39.14,31.94,38.6ZM30.16,29a.62.62,0,0,1,.12-.42,2,2,0,0,0,.16.57,1.53,1.53,0,0,0,0-.51.38.38,0,0,1,.17.32.61.61,0,0,1-.15.46A.46.46,0,0,1,30.16,29Zm.2.84h-.13v-.39c.06.09.14.12.19.19S30.41,29.88,30.36,29.88Zm.38-.46a.52.52,0,0,1,.06.2.32.32,0,0,0,.1.19,1.79,1.79,0,0,0,0-.31.23.23,0,0,1,.16.18,1.88,1.88,0,0,1,0,.19h-.33a.19.19,0,0,1-.18-.21Zm.34-.08a.46.46,0,0,1-.36-.43c0-.17.07-.21.07-.21a1,1,0,0,0,.22.43,1.13,1.13,0,0,0-.07-.52s.19,0,.2.26A1.13,1.13,0,0,1,31.08,29.34Zm.15.08c.06,0,.1.13.21.17a1,1,0,0,0-.12-.3.81.81,0,0,1-.08-.37,1.12,1.12,0,0,1,.3.87s-.22.11-.42-.25A.34.34,0,0,1,31.23,29.42Zm-4.27-5c-.23.22-.2.77-.2.77a2.78,2.78,0,0,1-.08-1.54.94.94,0,0,1,.7-.48,2.46,2.46,0,0,0,.2,1.11A.86.86,0,0,0,27,24.38Zm.72,2.72a15.4,15.4,0,0,0,.11-1.76,1,1,0,0,1,.23.17,3.54,3.54,0,0,0-.21-.34.63.63,0,0,1-.13-.3A3,3,0,0,1,28,25L28,24.8l-.86-.24a.64.64,0,0,1,.51-.11l.89.12.14-.13a2.8,2.8,0,0,1-.78-.13h0c-.38-.23-.33-1.22-.33-1.22.16-.24.33-.15.33-.15a1,1,0,0,0,.07.5c.06.1.13.13.17.12l.21,0a.57.57,0,0,0,.05.29.24.24,0,0,0,.4.09.5.5,0,0,0,.11-.39h.27l.09-.17c-.44,0-1.14,0-1.14,0-.13-.23,0-.67.07-.71a2.2,2.2,0,0,1,1.28,0c.67.19.79.48.88.75a.52.52,0,0,0,.33.34.82.82,0,0,1-.41,0c0,.06,0,.12.14.24s.15.18.2.34a3.78,3.78,0,0,1,.09.48.59.59,0,0,0-.38-.28.29.29,0,0,0,.12.15c.1.07.11.21.18.55a1.81,1.81,0,0,0,.15.49l-.13,0a.37.37,0,0,1-.13-.13c.13.56.23,1.41.29,1.86a3,3,0,0,0,.58,1.08,1.06,1.06,0,0,1-.65-.43,1.34,1.34,0,0,0,0,.46.77.77,0,0,1-.43-.43l-.23.63-.31-.47a1.32,1.32,0,0,0-.24.47,3.61,3.61,0,0,1-.33-.52l-.38.51-.3-.56c-.11.14-.34.48-.34.48a5,5,0,0,1-.25-.62,2.4,2.4,0,0,1-.51.32l0-.39-.46.05A3,3,0,0,0,27.68,27.1Zm.92-3.39s.07,0,.07-.1a.13.13,0,0,0,0-.09h.16s0,0,0,.06-.09.29-.2.29-.2-.13-.2-.29v-.06h.16a.12.12,0,0,0,0,.09C28.53,23.67,28.56,23.71,28.6,23.71ZM29.54,29a1.41,1.41,0,0,0,.14-.2.4.4,0,0,1,0,.23.34.34,0,0,0,.06.24s.06,0,.08-.4c0,0,.11,0,.11.22a.49.49,0,0,1-.17.41S29.58,29.41,29.54,29Zm.18.8c0,.1,0,.13-.12.13h-.11l0-.4C29.7,29.66,29.76,29.65,29.72,29.77Zm.3-.38.11.49H30c-.09,0-.09-.23-.09-.23A.43.43,0,0,1,30,29.39ZM28.86,29a1.21,1.21,0,0,0,.15-.2A.34.34,0,0,1,29,29a.28.28,0,0,0,.06.24s.07-.05.09-.4c0,0,.12,0,.12.22a.5.5,0,0,1-.18.41S28.91,29.42,28.86,29Zm.17.79c-.05.08-.05.13-.12.13h-.12l.06-.46C29,29.6,29.07,29.68,29,29.77Zm.19,0,.15-.27,0,.43h-.13C29.2,29.9,29.22,29.74,29.22,29.74Zm-1.11-.69c0-.12.07-.16.21-.28a1,1,0,0,0,0,.42,1.05,1.05,0,0,0,.13-.47.31.31,0,0,1,.15.32.61.61,0,0,1-.22.38A.36.36,0,0,1,28.11,29.05Zm.15.7c-.05.1-.06.15-.14.15H28l.08-.51C28.26,29.57,28.31,29.66,28.26,29.75Zm.45-.44,0,.58H28.6a.48.48,0,0,1-.1-.31C28.51,29.41,28.61,29.49,28.71,29.31Zm-1.54.48s.08,0,.14-.26.13-.26.13-.26.16.21.08.37-.17.26-.33.25-.2-.4-.11-.46a1.14,1.14,0,0,0,.15-.14A1.65,1.65,0,0,0,27.17,29.79Zm.32-1.13a.65.65,0,0,0,.17-.14,1.7,1.7,0,0,0,0,.53,1.11,1.11,0,0,0,.16-.43s.08.05.09.23-.13.48-.32.46C27.59,29.31,27.41,29.18,27.49,28.66Zm.44.65,0,.58h-.09a.51.51,0,0,1-.09-.31C27.73,29.41,27.83,29.49,27.93,29.31Zm-1-.68a4.16,4.16,0,0,0,.14-.45.43.43,0,0,1,0,.4A.85.85,0,0,0,27,29a.91.91,0,0,0,.18-.21.26.26,0,0,1,.24-.14s-.19.63-.53.57A1.13,1.13,0,0,1,26.94,28.63Zm0,1.05v.21h-.22l.09-.11C26.85,29.68,26.9,29.68,26.9,29.68Zm-.16-1a.87.87,0,0,1-.1.42,1.13,1.13,0,0,0-.12.33c.11,0,.16-.21.23-.19a.32.32,0,0,1,.12.14c-.22.4-.46.28-.46.28A1.25,1.25,0,0,1,26.74,28.72Zm-.55.94.11.22h-.24Zm-5-8.26a1.14,1.14,0,0,0,.06.31,9.47,9.47,0,0,1-1-.39,1.73,1.73,0,0,1-.84-.89.82.82,0,0,1,.94-.06c.61.29,1,.51,1,.51a2.15,2.15,0,0,0-.14.31,11,11,0,0,0-1.25-.54A7,7,0,0,0,21.17,21.4Zm-.38.54c.45.15.63.34.92.42,0,0-.1.08-.05.32a4.4,4.4,0,0,0-1.1-.36,1.3,1.3,0,0,0,.61.34,2.3,2.3,0,0,1,.66.3s.08.24.18.29a5.52,5.52,0,0,1-1.54-.53,1.34,1.34,0,0,1-.41-.54A.64.64,0,0,1,20.79,21.94Zm1.35.15c.1.26.29.32.47.49s.06.52.06.52a.68.68,0,0,0,.35.38s-.17.35-.1.51c0,0-.62,0-.69-.4a.61.61,0,0,1,.11-.53.62.62,0,0,1-.4-.4.51.51,0,0,1,.11-.45s-.75-.31-.58-.94l.68.36A.63.63,0,0,0,22.14,22.09Zm1.92,9.26c-.18.17-.46,0-.4-.34a.59.59,0,0,1,.17-.36.63.63,0,0,0,.2.23.25.25,0,0,0,.26,0A.83.83,0,0,1,24.06,31.35Zm.35-.17a.52.52,0,0,0,.19.19.25.25,0,0,0,.24,0,.83.83,0,0,1-.17.45c-.15.18-.42.05-.39-.28A.67.67,0,0,1,24.41,31.18Zm-1-.47c-.22.13-.49-.09-.39-.45a.62.62,0,0,1,.23-.35.87.87,0,0,0,.18.29.31.31,0,0,0,.28.1A.77.77,0,0,1,23.44,30.71Zm-.21-1a.7.7,0,0,1-.29.15c-.28,0-.36-.46-.1-.63a1.25,1.25,0,0,1,.28-.15s0,.21.16.25A.65.65,0,0,0,23.23,29.73ZM23,28.8a.75.75,0,0,1-.31.09c-.28,0-.3-.53,0-.65a.75.75,0,0,1,.29-.08s0,.21.14.28A.76.76,0,0,0,23,28.8Zm-.12-.87a.58.58,0,0,1-.32,0c-.27-.08-.23-.58,0-.64a1,1,0,0,1,.42,0A1,1,0,0,0,22.83,27.93ZM22.9,27a1,1,0,0,1-.42,0c-.3-.12-.22-.68.07-.71a1.31,1.31,0,0,1,.51.06A.78.78,0,0,0,22.9,27ZM23,26a3.34,3.34,0,0,1-.44-.07.38.38,0,0,1-.1-.66.81.81,0,0,1,.61,0,.64.64,0,0,0,0,.26A.68.68,0,0,0,23,26Zm0-1a1.48,1.48,0,0,1-.42,0,.43.43,0,0,1-.16-.68.9.9,0,0,1,.58,0,.7.7,0,0,0,.1.34A.73.73,0,0,0,23,24.93Zm-1-1.26a.48.48,0,0,0,.11.3,3.7,3.7,0,0,0-1.08-.09,2.58,2.58,0,0,0,1.08.32.59.59,0,0,0-.07.37s-.49-.11-.91-.18-.59-.72-.59-.72S20.93,23.16,22,23.67Zm-.7,1.09a2.43,2.43,0,0,1,.92.25.5.5,0,0,1-.44.19,2.12,2.12,0,0,0-.76,0,2.09,2.09,0,0,0,.68.15.48.48,0,0,1,.44.44,7.5,7.5,0,0,0-.76-.08.9.9,0,0,1-.77-.61A.94.94,0,0,1,21.32,24.76Zm0,1.38a3.25,3.25,0,0,1,.91,0s-.1.35-.4.37a1.67,1.67,0,0,0-.76.1,1.89,1.89,0,0,0,.69.07c.4,0,.45.41.45.41a4.65,4.65,0,0,0-.75,0c-.45.06-.78-.45-.78-.45S20.85,26.19,21.29,26.14Zm.05,1.42a3.85,3.85,0,0,1,.9-.12s-.08.35-.36.42a1.94,1.94,0,0,0-.75.22,2.29,2.29,0,0,0,.69,0,.39.39,0,0,1,.48.3,4.38,4.38,0,0,0-.73.16.88.88,0,0,1-.81-.29A1.05,1.05,0,0,1,21.34,27.56Zm.12,1.35a3.91,3.91,0,0,1,.86-.31.63.63,0,0,1-.31.49,2.17,2.17,0,0,0-.71.37,2.25,2.25,0,0,0,.67-.18.34.34,0,0,1,.5.2,5,5,0,0,0-.7.3.79.79,0,0,1-.82-.12A1.15,1.15,0,0,1,21.46,28.91Zm.39,1.29a4,4,0,0,1,.73-.51.72.72,0,0,1-.21.54,2.42,2.42,0,0,0-.57.53,2,2,0,0,0,.57-.35.29.29,0,0,1,.48.07,4.9,4.9,0,0,0-.58.46.69.69,0,0,1-.76.1A1.3,1.3,0,0,1,21.85,30.2Zm.59,1,.47-.47a.36.36,0,0,1-.05.43c-.19.23-.42.57-.42.57a1.78,1.78,0,0,0,.47-.4c.31-.33.48-.27.48-.27a6.52,6.52,0,0,1-.62.85.46.46,0,0,1-.58.14A1.13,1.13,0,0,1,22.44,31.2Zm.65.78c.23-.28.45-.52.45-.52a.35.35,0,0,1,0,.43,5.8,5.8,0,0,0-.39.62,2.29,2.29,0,0,0,.45-.45c.29-.36.46-.32.46-.32a8.1,8.1,0,0,1-.57.91.48.48,0,0,1-.58.2A1.13,1.13,0,0,1,23.09,32Zm.75.58.38-.6a.43.43,0,0,1,0,.47c-.16.28-.31.62-.31.62a2.41,2.41,0,0,0,.39-.54c.25-.41.41-.41.41-.41a8.36,8.36,0,0,1-.46,1,.51.51,0,0,1-.55.31A1.21,1.21,0,0,1,23.84,32.56Zm.76.49c.11-.34.22-.53.29-.74a.58.58,0,0,1,0,.46,5.07,5.07,0,0,0-.2.67,3.32,3.32,0,0,0,.28-.58c.13-.38.33-.4.33-.4a4.15,4.15,0,0,0-.2.68c-.08.42-.27.6-.5.63A.85.85,0,0,1,24.6,33.05Zm.74-.89c-.09.24-.44.09-.42-.21a1.36,1.36,0,0,1,.14-.5.77.77,0,0,0,.18.25A.37.37,0,0,1,25.34,32.16Zm-7.5-14.8a3,3,0,0,0,.84.66c.56.33,1.23.69,1.77,1,2.54,1.38,4,3.49,4,5.14s-.84,3.08-.6,4.39a2.06,2.06,0,0,0,1.5,1.6v1.23c-.22,0-.28-.43-.28-.43s-.13.3-.37.15a.65.65,0,0,1-.26-.5s-.23.14-.38,0-.14-.57-.14-.57a.32.32,0,0,1-.38-.19.63.63,0,0,1,0-.58.39.39,0,0,1-.33-.31.61.61,0,0,1,.12-.54.63.63,0,0,1-.3-.53.73.73,0,0,1,.28-.44.56.56,0,0,1-.24-.52.47.47,0,0,1,.32-.38.69.69,0,0,1-.19-.56c0-.34.29-.36.29-.36a.8.8,0,0,1-.24-.75.49.49,0,0,1,.22-.34.65.65,0,0,1-.31-.5.83.83,0,0,1,.29-.6c-.34-.07-.61-.21-.62-.54a.36.36,0,0,1,.24-.39.89.89,0,0,0-.28-.18c-.16-.05-.39-.09-.44-.3s0-.31.06-.32a.17.17,0,0,0,.13-.05c-.45-.39-.71-.28-.95-.56a.74.74,0,0,1-.11-.68s0,0,.09-.08a.2.2,0,0,0,.1-.11c-1.15-.67-3.25-1.86-3.25-1.86a18.09,18.09,0,0,0,2.92,1.86s0,.35-.25.24l-2.84-1.52C17.75,18.64,17.84,17.36,17.84,17.36Zm-1.69-1a1.73,1.73,0,0,0,.71.59l.71.38c0,.14,0,.32.06.5a.64.64,0,0,1-.31-.09,1.76,1.76,0,0,1-.3-.16.51.51,0,0,0,.26.3l.39.25.09.51c-.36-.26-.45-.21-1.06-.58S16.15,16.35,16.15,16.35Zm.41,2.45s.3-.26,1.05.14,1.95,1,1.95,1l-.49.2-1.57-.78a10.14,10.14,0,0,0,1.6,1,2,2,0,0,0,.3.45S16.84,20.18,16.56,18.8Zm1.13,2.94a2.44,2.44,0,0,1-.77-1.12.88.88,0,0,1,1,0c.63.32,2.25,1.05,2.25,1.05a3.65,3.65,0,0,0-.42.23c-.82-.4-2.14-.89-2.14-.89a14.49,14.49,0,0,0,2.14,1.14,2,2,0,0,0,.31.48A18.26,18.26,0,0,1,17.69,21.74Zm.65,1.42a1.1,1.1,0,0,1,.86-.36,6.47,6.47,0,0,1,1.41.39.67.67,0,0,1-.59.27,3.76,3.76,0,0,0-1.19-.16,3.74,3.74,0,0,0,1.05.35.72.72,0,0,1,.58.55A10.5,10.5,0,0,1,19.23,24,1.46,1.46,0,0,1,18.34,23.16Zm0,1.6a1.14,1.14,0,0,1,.85-.4,8,8,0,0,1,1.56.29.69.69,0,0,1-.58.3,5.23,5.23,0,0,0-1.34-.08,5.65,5.65,0,0,0,1.2.28.71.71,0,0,1,.61.51,10.41,10.41,0,0,1-1.38-.15A1.41,1.41,0,0,1,18.33,24.76Zm.12,1.93s.25-.63.78-.69a7.22,7.22,0,0,1,1.51.08s-.12.43-.49.45a4.77,4.77,0,0,0-1.33.08,6,6,0,0,0,1.25.13.55.55,0,0,1,.55.5,8.32,8.32,0,0,0-1.31,0C18.85,27.3,18.45,26.69,18.45,26.69Zm.26,1.86s.18-.72.71-.88a5.42,5.42,0,0,1,1.42-.12s-.09.45-.45.54a4.2,4.2,0,0,0-1.22.3,3.69,3.69,0,0,0,1.1-.05.5.5,0,0,1,.59.4s-.69.11-1.16.22A1.14,1.14,0,0,1,18.71,28.55Zm.42,1.87a1.49,1.49,0,0,1,.61-1A5.13,5.13,0,0,1,21,29a.78.78,0,0,1-.39.61,4.06,4.06,0,0,0-1.06.54,3.54,3.54,0,0,0,1-.26.54.54,0,0,1,.7.24l-1.08.48A1,1,0,0,1,19.13,30.42Zm.74,1.69a1.65,1.65,0,0,1,.47-1.1,4.29,4.29,0,0,1,1.08-.6.86.86,0,0,1-.3.68,3.69,3.69,0,0,0-.86.68,3.22,3.22,0,0,0,.82-.44.47.47,0,0,1,.69.06l-.9.68A1,1,0,0,1,19.87,32.11Zm1,1.3a1.66,1.66,0,0,1,.31-1.1,5.09,5.09,0,0,1,.82-.76.92.92,0,0,1-.15.75,3.36,3.36,0,0,0-.67.76,4.74,4.74,0,0,0,.66-.57c.34-.36.61-.12.61-.12s-.41.45-.75.79A.81.81,0,0,1,20.87,33.41Zm1.72.6a.76.76,0,0,1-.72.4A1.53,1.53,0,0,1,22,33.27a4.7,4.7,0,0,1,.62-.78,1,1,0,0,1-.16.92l-.4.61a3.87,3.87,0,0,0,.59-.67.54.54,0,0,1,.5-.24S22.87,33.61,22.59,34Zm.88.67a.77.77,0,0,1-.69.42A1.62,1.62,0,0,1,23,34c.23-.39.52-.79.52-.79a1,1,0,0,1-.16.94,3.66,3.66,0,0,0-.31.64,2.48,2.48,0,0,0,.52-.77.52.52,0,0,1,.46-.31A5.46,5.46,0,0,1,23.47,34.68Zm.35.92a2.14,2.14,0,0,1,.09-1.19,9.18,9.18,0,0,1,.42-.87,1.06,1.06,0,0,1,0,.83,2,2,0,0,0-.25.68,2.24,2.24,0,0,0,.38-.7.54.54,0,0,1,.42-.39,6.44,6.44,0,0,1-.31.88C24.25,35.55,23.82,35.6,23.82,35.6Zm1.52-.28s-.22.44-.49.46a2.17,2.17,0,0,1,.25-1.73.67.67,0,0,1,.08.48,2.91,2.91,0,0,0-.12.75s.15-.33.28-.68Zm0-1.21a1,1,0,0,1-.09-.48,2.47,2.47,0,0,1,.17-.58V34h0v.09A.38.38,0,0,1,25.34,34.11Zm0,4.55a.19.19,0,0,1,.22,0c.13.54-.58.35-.58.35a.58.58,0,0,1,.05-.66c.19-.16.27.09.27.09l-.18.32A.34.34,0,0,0,25.36,38.66Zm-.06-1.11v.54A.43.43,0,0,1,25.3,37.55Zm-.59-.23a1.2,1.2,0,0,1,.6-.7.43.43,0,0,1-.14.4,1.22,1.22,0,0,0-.3.38.77.77,0,0,0,.28-.17s0,.46-.21.51S24.63,37.61,24.71,37.32Zm.1.75a1,1,0,0,0-.42.54,1.36,1.36,0,0,0,.34-.26.84.84,0,0,1,0,.33.35.35,0,0,1-.46.14.56.56,0,0,1,0-.56C24.49,37.94,24.72,37.91,24.81,38.07Zm-.72-.36a1,1,0,0,1,.34-.37,3.24,3.24,0,0,0,0,.52s-.38.22-.59,0C23.81,37.89,24,37.92,24.09,37.71Zm-.52.69c.12-.22.3-.26.39-.09a.82.82,0,0,0-.32.44,1.3,1.3,0,0,0,.36-.22.87.87,0,0,1,0,.33.32.32,0,0,1-.46.09A.6.6,0,0,1,23.57,38.4Zm-3.41.23c.34-.13.67.14.63.67a1,1,0,0,1-.34.73l-.29-.29a.75.75,0,0,0,.23-.42c0-.21,0-.36-.22-.28s-.29.42-.29.42l-.08-.09S19.76,38.76,20.16,38.63ZM20.4,41a3.17,3.17,0,0,0,.09-.52,2.63,2.63,0,0,1,.13.8c0,.23-.12.31-.19.25S20.32,41.31,20.4,41Zm0-.5-.22-.22.1-.16.12.13ZM20,40.09,19.89,40l.14-.11.15.15A.3.3,0,0,0,20,40.09Zm.11.06a3.57,3.57,0,0,0-.22.5c-.05.21-.05.48-.16.42s-.16-.24,0-.51A1.08,1.08,0,0,1,20.13,40.15Zm-.27-.3a1.87,1.87,0,0,1,.23-.6c.16-.19.24-.1.22,0A1.12,1.12,0,0,1,19.86,39.85Zm-.08-.25,0,0-.06.2-.11-.1Zm-.31-1.17c.08,0,.14.09.14.19a.16.16,0,0,1-.14.18c-.07,0-.13-.08-.13-.18S19.4,38.43,19.47,38.43Zm.09-2.49a.86.86,0,0,1,.77-.37A3.37,3.37,0,0,1,19.2,38,4.57,4.57,0,0,0,19.56,35.94ZM18.2,37.15c.08,0,.14.09.14.19a.14.14,0,1,1-.28,0C18.06,37.24,18.12,37.15,18.2,37.15Zm-1-.82c.07,0,.13.09.13.19s-.06.19-.13.19-.13-.08-.13-.19S17.15,36.33,17.22,36.33ZM17.14,33a2.07,2.07,0,0,1,.56-.47s-.16,2-1.05,2.33a1.92,1.92,0,0,1,.24-.91A1.75,1.75,0,0,0,17.14,33Zm-.31,2.31c0,.11-.06.19-.13.19s-.14-.08-.14-.19.06-.19.14-.19S16.83,35.25,16.83,35.35ZM16,33.22c.07,0,.13.09.13.19s-.06.19-.13.19-.14-.08-.14-.19S15.9,33.22,16,33.22ZM15.63,35c.07,0,.13.09.13.19s-.06.19-.13.19-.13-.08-.13-.19S15.55,35,15.63,35Zm-1.35.23a1.8,1.8,0,0,1,1.6.55.51.51,0,0,0-.05.19,3.71,3.71,0,0,0-.65-.27c.22.5.6.44.6.44a.41.41,0,0,0,.08.26C15,36.65,14.28,35.24,14.28,35.24Zm.6,1.8a1.28,1.28,0,0,1,1.77.11.28.28,0,0,0-.09.11A1.88,1.88,0,0,1,16,37.1a.62.62,0,0,0-.55,0,.66.66,0,0,1,.5.11.65.65,0,0,0,.5.15.62.62,0,0,0,0,.29A2,2,0,0,1,14.88,37Zm1.1-.87c0-.11.06-.19.13-.19s.13.08.13.19-.06.19-.13.19S16,36.27,16,36.17Zm.79,1.25c.07,0,.13.08.13.19s-.06.19-.13.19-.13-.09-.13-.19S16.7,37.42,16.77,37.42ZM15.53,39A1.72,1.72,0,0,1,17,38.28a.46.46,0,0,0,0,.2s0,.15-.28.15-.35-.05-.49.19a.85.85,0,0,1,.45,0,1.46,1.46,0,0,0-.34.32A1.41,1.41,0,0,1,15.53,39ZM16,40.22s.51-1.76,1.88-1.63a.83.83,0,0,0,.21-.22c-.18-.12-.21-.25-.52-.59s-.54-.12-.54-.12v-.12a.18.18,0,0,0,.18-.06,5.57,5.57,0,0,0-.5-.68,2.09,2.09,0,0,1-.46-.89l-.88-1.56c-1.22-.09-1.6-1.78-1.6-1.78,1.23.08,1.63,1.59,1.63,1.59a2.09,2.09,0,0,1,.34.41s-.06-.44-.13-.9c0-.29-.08-.59-.11-.77a8.61,8.61,0,0,1-.29-1.42,3.6,3.6,0,0,1,.33-1.54,4.77,4.77,0,0,1,.4,1.87,1.75,1.75,0,0,1-.24,1.1,1.26,1.26,0,0,1,0,.44s.08.59.14.93a4.35,4.35,0,0,0,.15.6.71.71,0,0,0,.14-.28h0c0-.05,0-.29.05-.67a2.69,2.69,0,0,1,.73-2.14,4.51,4.51,0,0,1-.16,1.89c-.31.83-.61,1-.67,1.33a1.51,1.51,0,0,0,.09.3,2.15,2.15,0,0,0,.29.46.63.63,0,0,0,0,.18c0,.17.08.25.16.17s0-.35,0-.35h.07a1.36,1.36,0,0,0,.3,1.07,4.43,4.43,0,0,0,.53.62.6.6,0,0,0,0-.29,4.18,4.18,0,0,0-.11-.84,2,2,0,0,1-.07-.49,1.76,1.76,0,0,1,.51-1.44,4.11,4.11,0,0,1-.27,2.79,1.25,1.25,0,0,0,0,.39l.1.11a4.35,4.35,0,0,0,.51.49c-.05-.25-.09-.62-.09-.62h0a4.35,4.35,0,0,0,.1.66l.19.16.3.29a1.08,1.08,0,0,0,0-.46,5.47,5.47,0,0,1-.24-1.75,3.37,3.37,0,0,1,.49-1.62,3.84,3.84,0,0,1,.07,2.5,3,3,0,0,0-.23.88,2.82,2.82,0,0,0,0,.58l.73.7a.66.66,0,0,0-.21.07c-.56-.48-.83-.79-1.08-1a.32.32,0,0,0-.44.1.3.3,0,0,0-.3.18.48.48,0,0,0,0,.43A1.82,1.82,0,0,1,16,40.22Zm1.09-2a.16.16,0,0,1,.14-.18.19.19,0,0,1,0,.36A.16.16,0,0,1,17.11,38.22Zm2.46,1.46a1,1,0,0,0-.34.62.3.3,0,0,1,0-.38A.83.83,0,0,1,19.57,39.68Zm-1.06-.49a.16.16,0,0,1-.14.18c-.07,0-.13-.08-.13-.18s.06-.18.13-.18A.16.16,0,0,1,18.51,39.19Zm-.5-.11a.16.16,0,0,1-.14.18c-.07,0-.13-.08-.13-.18s.06-.18.13-.18A.16.16,0,0,1,18,39.08Zm-.71,2.7a3.36,3.36,0,0,1,.85-2.3.35.35,0,0,0,0,.1,7.88,7.88,0,0,0-.44,1.28,6.35,6.35,0,0,0,.54-1.22.12.12,0,0,0,.09,0A2.26,2.26,0,0,1,17.3,41.78Zm.86.62a1.57,1.57,0,0,1-.24-.82,3.49,3.49,0,0,0,.61-1.16A3,3,0,0,1,18.16,42.4Zm.47-2.33a.19.19,0,0,1,0-.36.19.19,0,0,1,0,.36Zm.09-.62a.47.47,0,0,0,0-.13l.19.16A.42.42,0,0,0,18.72,39.45Zm2.12,2.11a.37.37,0,0,1-.43.36c-.18,0-.36-.37-.28-.91,0,0-.17.6-.41.55s-.45-.31-.28-1a.38.38,0,0,1-.49-.2.57.57,0,0,1,.36-.8l.07.07a.57.57,0,0,0-.31.48c0,.32.2.37.24.22a1,1,0,0,1,.26-.5l.33.35a1.26,1.26,0,0,0-.34.54.39.39,0,0,0,.14.45c.08.06.2,0,.22-.13a1.69,1.69,0,0,1,.19-.63l.26.27a3.93,3.93,0,0,0-.11.67c0,.28.2.32.3.28s.17-.33.15-.55A.64.64,0,0,1,20.84,41.56Zm1.34,3.74s.46.05.65.74A.89.89,0,0,1,22.18,45.3Zm.52.08a1.31,1.31,0,0,0-.56-.47,7.09,7.09,0,0,0-1.47-4.11,2.47,2.47,0,0,0-.11-.41C22.57,42.18,22.7,45.38,22.7,45.38Zm-1.41-4.62a1.84,1.84,0,0,0-.23-.34L21,40c.1-.08.48,0,.48,0a5.44,5.44,0,0,0,.23,1C21.58,41,21.45,41,21.29,40.76Zm.55.11c-.14-.09-.09-.36-.14-.56a1.73,1.73,0,0,1-.07-.38c.51-.28.48.18.53.46a.73.73,0,0,0,.13.36S22,41,21.84,40.87Zm.59-.17a2.75,2.75,0,0,1-.2-.66c-.07-.23,0-.32,0-.32a.84.84,0,0,0,.25-.09c.12,0,.11.1.17.32s.15.39.19.56S22.51,40.81,22.43,40.7Zm.5-.5L22.81,40H23Zm-.05-.46a1,1,0,0,1,.33-.89c.1.15,0,.19-.09.35a.68.68,0,0,0-.06.55A.63.63,0,0,1,22.88,39.74Zm.63.65a.25.25,0,0,1-.16.26c-.18,0-.25-.17-.25-.17a.53.53,0,0,1,.11-.36c.12-.08.31.05.31.05-.16,0-.3.27-.3.27A.71.71,0,0,0,23.51,40.39Zm0-.62a.17.17,0,0,1-.29-.1.68.68,0,0,1,.1-.39c.1-.12.26-.12.31,0a1,1,0,0,0-.29.28,1,1,0,0,0,.35-.15A.63.63,0,0,1,23.52,39.77Zm.55.64a.24.24,0,0,1-.13.27c-.18.08-.26-.12-.26-.12a.53.53,0,0,1,.08-.38c.12-.09.32,0,.32,0a.84.84,0,0,0-.29.27A.69.69,0,0,0,24.07,40.41Zm-.24-.7a1.09,1.09,0,0,1,.17-.54.24.24,0,0,1,.4,0,.85.85,0,0,0-.38.39,1,1,0,0,0,.46-.19s0,.39-.26.47S23.89,39.94,23.83,39.71Zm.79,1c-.25.1-.35-.05-.35-.05a.59.59,0,0,1,.17-.48c.16-.14.26.08.26.08a.42.42,0,0,0-.24.27.74.74,0,0,0,.38-.16A.32.32,0,0,1,24.62,40.67Zm0-.86s0-.46.15-.58a.49.49,0,0,1,.43,0,1.94,1.94,0,0,0-.42.4,1,1,0,0,0,.41-.18.39.39,0,0,1-.11.42A.33.33,0,0,1,24.58,39.81Zm.43.71a.55.55,0,0,1,.2-.42.25.25,0,0,1,.37,0A2.29,2.29,0,0,1,25,40.52Zm.82-.75c-.3.09-.39,0-.39,0a1,1,0,0,1,.16-.67.26.26,0,0,0,.12.16.63.63,0,0,0,.19.06c-.14,0-.33.32-.33.32.17.07.36-.08.52-.21A.38.38,0,0,1,25.83,39.77Zm0-.79a.29.29,0,0,1-.13-.29l.46.21S26,39.07,25.82,39Zm.58.47a.13.13,0,0,1-.13,0l.07-.41A.72.72,0,0,1,26.4,39.45Zm0-.72L26,38.45l-.42-.25V33.6h6.37v4.6l-.42.25-.47.28-.54.31-.47.27-.54.32-.48.28-.26.15-.27-.15L28,39.63l-.54-.32L27,39Zm-1.52,5.79a2.71,2.71,0,0,1,.5-2.16,17.59,17.59,0,0,0,1.45-2,.7.7,0,0,1,.06.34,28.08,28.08,0,0,0-1.7,3.24A28.22,28.22,0,0,0,27,40.76s.14,0,.16.24c0,0-.84,1.69-1.22,2.65S25.15,44.48,24.91,44.52ZM26,45.92a2.39,2.39,0,0,1,.07-2.05c.37-.91,1.1-2.76,1.1-2.76a.59.59,0,0,0,.17.15c-.34,1.08-1.14,4-1.14,4a28.42,28.42,0,0,0,1.24-3.88.72.72,0,0,0,.25,0l-1,3.91A.93.93,0,0,1,26,45.92Zm1.91-.47a1.71,1.71,0,0,1-.6,1.32,2.16,2.16,0,0,1-.3-1.41c.13-.73.8-3.83.8-3.83a1.57,1.57,0,0,0,.16.17S27.6,44,27.38,46c0,0,.43-2,.74-4.26a.47.47,0,0,0,.2-.05S28,44.69,27.93,45.45ZM28.74,47c-.57-.52-.51-1.11-.47-2.3s.2-2.9.2-2.9a1.31,1.31,0,0,0,.19.12,27.07,27.07,0,0,0,.08,4.4,26.63,26.63,0,0,0,.07-4.4,1.31,1.31,0,0,0,.19-.12s.15,1.72.2,2.9S29.31,46.46,28.74,47Z"></path><path class="cls-2" d="M19.65,37a2.23,2.23,0,0,0,.22-.58A1.25,1.25,0,0,0,19.65,37Z"></path><path class="cls-2" d="M18.27,41.37a1.25,1.25,0,0,1,0,.33,1.42,1.42,0,0,0,.06-.58A.41.41,0,0,0,18.27,41.37Z"></path><path class="cls-2" d="M27.72,23.36s-.07.12,0,.13,0,.15,0,.15a.17.17,0,0,0,.05-.13C27.79,23.41,27.75,23.35,27.72,23.36Z"></path><polygon class="cls-2" points="26.19 29.66 26.05 29.89 26.3 29.88 26.19 29.66"></polygon><path class="cls-2" d="M26.77,29.78l-.09.11h.22v-.21S26.85,29.68,26.77,29.78Z"></path><path class="cls-2" d="M27.08,29.43c-.09.06,0,.45.11.46s.25-.06.33-.25-.08-.37-.08-.37-.07,0-.13.26-.14.26-.14.26a1.65,1.65,0,0,1,.06-.5A1.14,1.14,0,0,1,27.08,29.43Z"></path><path class="cls-2" d="M26.87,29.42a.32.32,0,0,0-.12-.14c-.07,0-.12.15-.23.19a1.13,1.13,0,0,1,.12-.33.87.87,0,0,0,.1-.42,1.25,1.25,0,0,0-.33,1S26.65,29.82,26.87,29.42Z"></path><path class="cls-2" d="M31.54,29.79a1.12,1.12,0,0,0-.3-.87.81.81,0,0,0,.08.37,1,1,0,0,1,.12.3c-.11,0-.15-.19-.21-.17a.34.34,0,0,0-.11.12C31.32,29.9,31.54,29.79,31.54,29.79Z"></path><path class="cls-2" d="M27.43,28.62a.26.26,0,0,0-.24.14A.91.91,0,0,1,27,29a.85.85,0,0,1,.1-.39.43.43,0,0,0,0-.4,4.16,4.16,0,0,1-.14.45,1.13,1.13,0,0,0,0,.56C27.24,29.25,27.43,28.62,27.43,28.62Z"></path><path class="cls-2" d="M27.59,29.31c.19,0,.33-.27.32-.46s-.09-.23-.09-.23a1.11,1.11,0,0,1-.16.43,1.7,1.7,0,0,1,0-.53.65.65,0,0,1-.17.14C27.41,29.18,27.59,29.31,27.59,29.31Z"></path><path class="cls-2" d="M27.9,29.89l0-.58c-.1.18-.2.1-.21.27a.51.51,0,0,0,.09.31Z"></path><path class="cls-2" d="M28.07,29.39,28,29.9h.13c.08,0,.09,0,.14-.15S28.26,29.57,28.07,29.39Z"></path><path class="cls-2" d="M28.69,29.89l0-.58c-.1.18-.2.1-.21.27a.48.48,0,0,0,.1.31Z"></path><path class="cls-2" d="M28.85,29.44l-.06.46h.12c.07,0,.07,0,.12-.13S29,29.6,28.85,29.44Z"></path><path class="cls-2" d="M29.49,29.9h.11c.07,0,.1,0,.12-.13s0-.11-.2-.27Z"></path><path class="cls-2" d="M28.62,29a.31.31,0,0,0-.15-.32,1.05,1.05,0,0,1-.13.47,1,1,0,0,1,0-.42c-.14.12-.21.16-.21.28a.36.36,0,0,0,.29.37A.61.61,0,0,0,28.62,29Z"></path><path class="cls-2" d="M31.14,28.87c0-.25-.2-.26-.2-.26a1.13,1.13,0,0,1,.07.52,1,1,0,0,1-.22-.43s-.07,0-.07.21a.46.46,0,0,0,.36.43A1.13,1.13,0,0,0,31.14,28.87Z"></path><path class="cls-2" d="M30.63,29a.38.38,0,0,0-.17-.32,1.53,1.53,0,0,1,0,.51,2,2,0,0,1-.16-.57.62.62,0,0,0-.12.42.46.46,0,0,0,.32.42A.61.61,0,0,0,30.63,29Z"></path><path class="cls-2" d="M29.28,29.9h.13l0-.43-.15.27S29.2,29.9,29.28,29.9Z"></path><path class="cls-2" d="M30,29.88h.12L30,29.39a.43.43,0,0,0-.1.26S29.92,29.88,30,29.88Z"></path><path class="cls-2" d="M30.23,29.49v.39h.13c.05,0,.11-.13.06-.2S30.29,29.58,30.23,29.49Z"></path><path class="cls-2" d="M30.78,29.87h.33a1.88,1.88,0,0,0,0-.19.23.23,0,0,0-.16-.18,1.79,1.79,0,0,1,0,.31.32.32,0,0,1-.1-.19.52.52,0,0,0-.06-.2l-.14.24A.19.19,0,0,0,30.78,29.87Z"></path><path class="cls-2" d="M30,29.06c0-.21-.11-.22-.11-.22,0,.35-.08.4-.08.4A.34.34,0,0,1,29.7,29a.4.4,0,0,0,0-.23,1.41,1.41,0,0,1-.14.2c0,.44.24.5.24.5A.49.49,0,0,0,30,29.06Z"></path><path class="cls-2" d="M29.31,29.07c0-.21-.12-.22-.12-.22,0,.35-.09.4-.09.4A.28.28,0,0,1,29,29a.34.34,0,0,0,0-.23,1.21,1.21,0,0,1-.15.2c.05.44.27.5.27.5A.5.5,0,0,0,29.31,29.07Z"></path><polygon class="cls-2" points="25.96 33.6 25.96 38.45 26.43 38.73 26.43 33.6 25.96 33.6"></polygon><polygon class="cls-2" points="27.44 39.31 27.44 33.6 26.97 33.6 26.97 39.04 27.44 39.31"></polygon><polygon class="cls-2" points="28.46 39.91 28.46 33.6 27.98 33.6 27.98 39.63 28.46 39.91"></polygon><polygon class="cls-2" points="29.47 39.63 29.47 33.6 28.99 33.6 28.99 39.91 29.47 39.63"></polygon><polygon class="cls-2" points="30.48 39.04 30.48 33.6 30.01 33.6 30.01 39.31 30.48 39.04"></polygon><polygon class="cls-2" points="31.49 38.45 31.49 33.6 31.02 33.6 31.02 38.73 31.49 38.45"></polygon><path class="cls-2" d="M28.77,0A28.78,28.78,0,1,0,57.55,28.77,28.77,28.77,0,0,0,28.77,0ZM48.09,48.09A27.21,27.21,0,1,1,54,39.41,27.32,27.32,0,0,1,48.09,48.09Z"></path><path class="cls-2" d="M48.38,28.77A19.61,19.61,0,1,0,28.77,48.38,19.61,19.61,0,0,0,48.38,28.77Zm-38.48,0A18.87,18.87,0,0,1,42.12,15.43a18.88,18.88,0,0,1-26.7,26.69A18.75,18.75,0,0,1,9.9,28.77Z"></path><path class="cls-2" d="M49.79,28.77a21,21,0,1,0-21,21A21,21,0,0,0,49.79,28.77Zm-41.66,0a20.62,20.62,0,1,1,6,14.61A20.51,20.51,0,0,1,8.13,28.77Z"></path><path class="cls-2" d="M8.3,38l.09,0-.34-.95-.09,0c0,.1.11.33-.09.4a.56.56,0,0,1-.2,0L7,37.5l-.46-1.26.4-.37a1.11,1.11,0,0,1,.27-.2c.17-.06.24.09.3.27l.09,0-.44-1.23-.09,0c.06.22,0,.31-.27.59l-2.3,2.19,0,.09,2.73.15a3.6,3.6,0,0,1,.81.11A.32.32,0,0,1,8.3,38Zm-3-.63,1.12-1,.4,1.12Z"></path><path class="cls-2" d="M7.05,34.7h.1L7,33.5h-.1c.05.38,0,.5-.56.59l-2,.34h0L6.82,32.7l0-.07-3.09-.8h0L6,31.44c.41-.07.5,0,.59.37h.09l-.23-1.42-.1,0c0,.33,0,.45-.38.52l-2.25.37c-.4.07-.45-.05-.53-.36l-.09,0,.17,1L6,32.64l-2.36,1.6.17,1,.1,0c0-.37,0-.49.37-.55l2.05-.35C6.87,34.23,7,34.32,7.05,34.7Z"></path><path class="cls-2" d="M3.2,30.37c0-.33,0-.45.45-.46l2.28,0c.4,0,.44.11.47.44h.1l0-2.77-.87-.22v.14c.53.22.68.47.69,1.12s0,.76-.2.76l-1.27,0v-.79c0-.42.07-.5.48-.57v-.12l-1.19,0V28c.36,0,.48.1.49.56v.79H3.46c-.18,0-.18-.05-.18-.16v-.69c0-.57.07-.71.52-.79v-.13l-.73,0,0,2.72Z"></path><path class="cls-2" d="M3.72,26.45l2.19.3c.38.06.49.09.46.51h.09l.2-1.41h-.1c-.07.4-.18.44-.52.39l-1-.13,0-.29,1.73-1L6.92,24h-.1a.59.59,0,0,1-.3.41l-1.43.86c0-.26,0-.94-.72-1S3.36,25,3.3,25.4l-.2,1.4.1,0C3.28,26.47,3.34,26.4,3.72,26.45Zm-.25-.89c0-.2.13-.87.81-.77s.63.86.57,1.29L3.61,25.9C3.46,25.88,3.43,25.83,3.47,25.56Z"></path><path class="cls-2" d="M4.35,22.8l2.21.56c.35.09.42.17.32.6L7,24l.37-1.48-.09,0c-.11.37-.19.47-.57.37l-2.21-.56c-.4-.1-.4-.23-.32-.6l-.1,0-.37,1.47.09,0C3.91,22.76,4,22.7,4.35,22.8Z"></path><path class="cls-2" d="M5.76,21.76a1.63,1.63,0,0,0,2.26-1,1.73,1.73,0,0,0-.11-1.53l-.12.05a1.58,1.58,0,0,1,.07,1.27c-.23.6-.86,1-1.88.63a1.58,1.58,0,0,1-1-.84,1.09,1.09,0,0,1,0-.83,1.13,1.13,0,0,1,1.29-.72l0-.11-1.09-.37,0,.11a.23.23,0,0,1,.07.28,3.78,3.78,0,0,0-.47.78A1.7,1.7,0,0,0,5.76,21.76Z"></path><path class="cls-2" d="M8.43,19a.32.32,0,0,1,0,.28l.09,0,.5-.88L8.9,18.4c-.05.09-.17.3-.36.2a.64.64,0,0,1-.15-.14L8,18l.66-1.17.53.06a1.23,1.23,0,0,1,.33.08c.17.09.09.24,0,.41l.08.05.64-1.14-.08-.05c-.12.19-.21.22-.62.18l-3.16-.32,0,.08L8,18.31A3.35,3.35,0,0,1,8.43,19ZM6.91,16.58l1.52.17-.58,1Z"></path><path class="cls-2" d="M8.2,14,10,15.38c.43.34.42.47.2.79l.07.06.76-.94-.08-.06c-.25.29-.4.3-.81,0L8.55,14h3.61l.05-.07-2.1-1.69c-.47-.37-.39-.51-.21-.79l-.08-.06-.75.94.07.06c.24-.25.36-.34.82,0l1.34,1.07H8.14l-.55.68.08.06C7.8,14,7.87,14,8.2,14Z"></path><path class="cls-2" d="M14.8,11.49a1.76,1.76,0,0,0,.66-1.39h-.13a1.63,1.63,0,0,1-.57,1.14c-.5.41-1.25.45-1.94-.39a1.62,1.62,0,0,1-.48-1.25,1.18,1.18,0,0,1,.4-.73,1.12,1.12,0,0,1,1.47,0l.09-.07-.76-.87L13.45,8a.22.22,0,0,1-.07.28,4.07,4.07,0,0,0-.81.44,1.71,1.71,0,0,0-.22,2.48A1.64,1.64,0,0,0,14.8,11.49Z"></path><path class="cls-2" d="M14.88,7.78,16,9.69c.2.33.24.44-.12.68l0,.08,1.22-.72-.05-.09c-.35.18-.45.13-.62-.16L16,8.57l1.34-.79.51.86c.19.33.23.44-.13.67l0,.09L19,8.67l-.05-.08c-.36.18-.45.12-.62-.17l-1.16-2c-.19-.31-.17-.4.15-.63l-.05-.08L16,6.47l.05.09c.34-.17.43-.16.62.17l.5.85-1.33.79-.51-.85c-.18-.32-.17-.41.15-.63l-.05-.08-1.22.72,0,.08C14.6,7.45,14.69,7.46,14.88,7.78Z"></path><path class="cls-2" d="M19.94,8.28l0-.09c-.1,0-.32.12-.4-.08a.54.54,0,0,1,0-.19V7.27l1.25-.49.37.38a1.09,1.09,0,0,1,.21.27c.07.18-.08.24-.26.31l0,.09,1.22-.47,0-.1c-.22.07-.31,0-.6-.24L19.41,4.77l-.09,0-.08,2.73a3.93,3.93,0,0,1-.08.82.39.39,0,0,1-.2.2l0,.09Zm-.43-2.76,1.06,1.09L19.47,7Z"></path><path class="cls-2" d="M22.23,4.44l.4,2c.1.54,0,.64-.37.74l0,.1,1.19-.24,0-.09c-.37.06-.5,0-.6-.55l-.4-2h0l1.79,2.5h.08L25,3.8h0l.44,2.26c.09.41,0,.5-.35.6l0,.09,1.4-.27,0-.1c-.32,0-.45,0-.52-.37l-.44-2.23c-.08-.4,0-.45.35-.54l0-.09-1,.19L24.3,6.1,22.64,3.79l-1,.19,0,.1C22,4,22.15,4.05,22.23,4.44Z"></path><path class="cls-2" d="M27.09,3.67l.05,2.27c0,.37-.05.46-.48.48v.09l1.71,0c1.14,0,1.22-.74,1.22-.93,0-.54-.43-.78-.87-.86h0a.74.74,0,0,0,.66-.75c0-.8-.92-.85-1.36-.84l-1.44,0v.1C27,3.23,27.08,3.29,27.09,3.67ZM29,5.54c0,.69-.6.75-.94.75s-.39,0-.4-.2l0-1.27a2.61,2.61,0,0,1,.83.06A.64.64,0,0,1,29,5.54ZM27.72,3.29H28c.36,0,.9.08.91.69s-.6.63-.74.63l-.49,0,0-1.18C27.6,3.36,27.61,3.29,27.72,3.29Z"></path><path class="cls-2" d="M33,5.94h-.14a1,1,0,0,1-1.19.53c-.76-.09-.76-.09-.74-.3l.15-1.26.79.1c.42,0,.49.13.5.55h.12l.14-1.18h-.12c-.1.35-.17.47-.62.41l-.78-.09.13-1.13c0-.17.08-.16.19-.15l.69.08c.56.07.68.16.71.63H33L33,3.4l-2.7-.32v.1c.32.06.44.11.39.51L30.44,6c0,.39-.17.42-.5.4v.1l2.75.33Z"></path><path class="cls-2" d="M33,6.8l1.37.37,0-.09C34,7,33.94,6.84,34,6.51l.26-1,.28.07.77,1.84.8.21,0-.09a.57.57,0,0,1-.36-.35l-.69-1.53c.26,0,.94.07,1.12-.59s-.59-1.08-1-1.2l-1.37-.37,0,.1c.33.13.4.19.3.56l-.57,2.14c-.1.37-.15.47-.56.39Zm1.7-2.67C34.7,4,34.75,4,35,4s.84.24.67.9-.93.52-1.35.41Z"></path><path class="cls-2" d="M38.84,9a1.66,1.66,0,0,0,2.3-.81,1.68,1.68,0,1,0-3-1.52A1.65,1.65,0,0,0,38.84,9Zm-.17-2.07c.53-1,1.23-1.16,1.69-.92s.79.87.26,1.91S39.43,9,38.93,8.79,38.16,7.88,38.67,6.88Z"></path><path class="cls-2" d="M42.45,7.66,41.18,9.48c-.24.34-.34.37-.66.17l-.06.08,1.17.82.06-.08c-.29-.22-.34-.33-.12-.64l.65-.92.6.43c.31.23.38.34.18.72l.1.07.68-1-.09-.07c-.27.29-.4.32-.75.08l-.6-.43L43,7.81c.09-.13.13-.12.23,0l.57.4c.47.33.53.47.33.89l.11.07.41-.61L42.41,7,42.35,7C42.6,7.23,42.69,7.33,42.45,7.66Z"></path><path class="cls-2" d="M44.86,13.43a1.65,1.65,0,0,0,1.43.54v-.13a1.56,1.56,0,0,1-1.17-.47c-.45-.46-.56-1.21.23-2a1.6,1.6,0,0,1,1.2-.57,1.13,1.13,0,0,1,.86,1.81l.08.08.8-.83-.08-.08a.22.22,0,0,1-.28-.05,4.25,4.25,0,0,0-.51-.77,1.7,1.7,0,0,0-2.48,0A1.63,1.63,0,0,0,44.86,13.43Z"></path><path class="cls-2" d="M46.93,16a1.77,1.77,0,0,0,2.89-2,1.77,1.77,0,0,0-2.89,2ZM49.67,14c.3.43.29,1.13-.66,1.81s-1.6.49-1.92,0-.26-1.15.66-1.8S49.37,13.59,49.67,14Z"></path><path class="cls-2" d="M50.83,16.59,49,17.47c-.51.23-.62.17-.81-.17l-.09,0,.51,1.09.09,0c-.14-.35-.09-.49.39-.72l1.86-.86h0l-2,2.34,0,.06,3.2,0h0l-2.08,1c-.38.18-.48.15-.67-.2l-.09,0,.61,1.3.09,0c-.12-.31-.13-.43.23-.6l2.06-1c.37-.17.45-.08.61.21l.08,0-.43-.92L49.72,19l1.84-2.17-.43-.92L51,16C51.19,16.3,51.19,16.42,50.83,16.59Z"></path><path class="cls-2" d="M52.79,21.14l-2,.49c-.54.13-.64.05-.75-.33l-.1,0,.29,1.17.09,0c-.07-.36,0-.49.52-.62l2-.48h0l-2.41,1.9v.07l3.15.57h0l-2.24.55c-.41.1-.5.05-.61-.33l-.1,0,.34,1.4.1,0c-.06-.32,0-.45.34-.54l2.21-.54c.39-.09.45,0,.56.33l.09,0-.24-1-2.78-.49,2.23-1.76-.24-1-.09,0C53.2,20.93,53.18,21,52.79,21.14Z"></path><path class="cls-2" d="M53.77,25.87,51.5,26c-.4,0-.45-.09-.49-.41h-.1l.2,2.76.88.17v-.14c-.53-.19-.71-.43-.75-1.07s0-.76.16-.78l1.27-.09,0,.79c0,.42,0,.5-.44.59V28l1.18-.08v-.12c-.36,0-.49-.07-.52-.53l-.06-.79L54,26.38c.17,0,.17.05.18.16l0,.69c0,.56,0,.7-.48.81v.13l.73-.07-.2-2.71H54.2C54.19,25.72,54.17,25.84,53.77,25.87Z"></path><path class="cls-2" d="M54.42,28.89c-.06.36-.11.43-.49.41l-2.21-.15c-.38,0-.49-.06-.49-.47h-.1L51,30.09h.1c0-.41.15-.46.49-.43l1,.06V30L51,31.13l-.06.83H51a.61.61,0,0,1,.27-.43l1.37-1c0,.26.11.94.79,1s1-.78,1-1.24l.09-1.41Zm-.17,1.27c0,.21-.08.88-.76.83s-.69-.81-.66-1.24l1.25.08C54.23,29.84,54.26,29.89,54.25,30.16Z"></path><path class="cls-2" d="M52.56,32.38a1.64,1.64,0,0,0-2.1,1.3,1.68,1.68,0,0,0,.34,1.49l.11-.07a1.64,1.64,0,0,1-.26-1.24c.14-.63.71-1.13,1.77-.9a1.63,1.63,0,0,1,1.14.68,1.13,1.13,0,0,1-1,1.72l0,.12,1.14.2,0-.11a.23.23,0,0,1-.12-.26,3.41,3.41,0,0,0,.36-.85A1.7,1.7,0,0,0,52.56,32.38Z"></path><path class="cls-2" d="M52.7,36.57l-2.13-.79c-.37-.14-.37-.27-.28-.58l-.09,0-1,2.6.73.52,0-.14a1,1,0,0,1-.23-1.28c.26-.72.27-.72.47-.64l1.19.44-.29.74c-.15.39-.25.44-.65.36l0,.11,1.11.41,0-.11c-.32-.18-.42-.27-.26-.7l.28-.74,1.07.4c.16.06.14.12.1.22l-.24.65c-.2.53-.32.63-.78.54l0,.12.69.24,1-2.55-.09,0C53.15,36.61,53.08,36.72,52.7,36.57Z"></path><path class="cls-2" d="M8.6,42.61a1.38,1.38,0,0,0-.25,1.94,1.4,1.4,0,0,0,2,.25,1.38,1.38,0,0,0,.24-1.94A1.36,1.36,0,0,0,8.6,42.61Z"></path><path class="cls-2" d="M17.89,48.54l0,0-1.31-.78-.05.09c.36.23.39.32.19.65L15.58,50.4c-.19.32-.29.36-.67.14l-.05.09,1.31.78,0-.09c-.32-.2-.4-.31-.19-.65l1.16-2c.19-.32.31-.32.57-.19l0,0Z"></path><path class="cls-2" d="M21,50l-1.09-.5-.05.09c.31.17.42.27.18.8l-.72,1.56h0l-.76-3.06-.69-.31,0,0-.1,0,0,0c.19.08.25.14.34.46l-.95,2.06c-.23.5-.36.52-.72.39l0,.08,1.09.51,0-.09c-.33-.17-.38-.32-.16-.8l.83-1.82h0l.88,3.49.08,0,1.12-2.45c.25-.55.41-.5.72-.4Z"></path><path class="cls-2" d="M17.89,48.54l-.11,0,0,0,.1,0Z"></path><path class="cls-2" d="M24.09,53.73l-.55-3.14-.1,0-1.63,2.2a3.43,3.43,0,0,1-.54.62.37.37,0,0,1-.28,0l0,.09,1,.24,0-.09c-.1,0-.34-.09-.29-.3a1,1,0,0,1,.09-.18l.37-.52,1.3.31.09.53a1,1,0,0,1,0,.34c0,.18-.21.15-.39.1l0,.1,1.28.3,0-.09C24.22,54.2,24.17,54.13,24.09,53.73Zm-1.81-1.24.91-1.23.24,1.51Z"></path><path class="cls-2" d="M26.46,54.36c-.42,0-.51,0-.49-.25l.21-2.42c0-.4.17-.43.52-.42v-.09l-1.44-.13v.1c.31.05.43.09.4.5l-.2,2.26c0,.4-.16.43-.49.42v.1l2.75.24.33-.86h-.13C27.56,54.44,27.23,54.43,26.46,54.36Z"></path><path class="cls-2" d="M30.64,52.78v.1c.35,0,.45,0,.48.43l.05.83c0,.18-.34.32-.69.34a1.34,1.34,0,0,1-1.41-1.43c-.07-1.3.66-1.66,1.15-1.69a1.16,1.16,0,0,1,1.17.81h.12l-.11-1.07h-.11c0,.15-.19.18-.23.19a4.1,4.1,0,0,0-.93-.12A1.71,1.71,0,0,0,28.48,53a1.64,1.64,0,0,0,.5,1.25,2,2,0,0,0,1.47.46,2.32,2.32,0,0,0,1.22-.43l-.06-1c0-.37.11-.38.34-.42v-.09Z"></path><path class="cls-2" d="M34.23,53.89c-.75.16-.75.15-.79-.06l-.26-1.24.78-.15c.41-.08.5,0,.65.36l.11,0-.24-1.17-.11,0c0,.36,0,.5-.46.59l-.77.16-.23-1.12c0-.17,0-.18.13-.2l.68-.14c.55-.12.7-.06.87.37l.13,0-.17-.71-2.66.55,0,.09c.32,0,.44,0,.53.37l.46,2.22c.08.39,0,.46-.35.55l0,.09,2.72-.56.05-.89-.15,0C35.08,53.56,34.86,53.76,34.23,53.89Z"></path><path class="cls-2" d="M38.57,52.41l-1.43-.86c.23-.14.81-.48.58-1.13s-1.1-.55-1.53-.4l-1.33.48,0,.09c.35-.09.44-.07.57.29L36.21,53c.13.36.15.47-.23.63l0,.09,1.34-.48,0-.09c-.39.12-.47.05-.59-.28l-.34-1,.27-.1,1.68,1.07.78-.28,0-.09A.58.58,0,0,1,38.57,52.41Zm-2.25-.7-.43-1.18c0-.14,0-.19.24-.28s.83-.29,1.06.35S36.72,51.56,36.32,51.71Z"></path><path class="cls-2" d="M39.92,51.53l-1-2.06c-.18-.37-.08-.45.26-.63l-.05-.09-1.37.66,0,.09c.39-.17.49-.14.65.2l1,2c.16.33.14.44-.25.63l0,.09,1.38-.65,0-.09C40.23,51.88,40.1,51.89,39.92,51.53Z"></path><path class="cls-2" d="M43.21,49.66l-2.62-1.81-.09.06.42,2.7a3,3,0,0,1,.06.81.34.34,0,0,1-.16.24l0,.08.87-.54-.06-.08c-.09.06-.29.19-.4,0a.47.47,0,0,1-.07-.19l-.12-.63,1.14-.71.44.31a1.43,1.43,0,0,1,.26.23c.09.16,0,.25-.21.35l.05.08,1.12-.68-.06-.09C43.63,49.9,43.54,49.89,43.21,49.66Zm-2.15.42-.24-1.51,1.24.88Z"></path><path class="cls-2" d="M49,42.61a1.39,1.39,0,1,0,.25,1.94A1.38,1.38,0,0,0,49,42.61Z"></path><polygon class="cls-2" points="22.66 14.7 22.25 13.7 23.05 13.37 22.89 12.98 22.09 13.31 21.86 12.76 22.78 12.37 22.62 11.98 21.31 12.52 22.28 14.86 22.66 14.7"></polygon><path class="cls-2" d="M24,13.9a.89.89,0,0,0,.77.11.86.86,0,0,0,.6-.49,1.49,1.49,0,0,0,0-1,1.49,1.49,0,0,0-.52-.86.92.92,0,0,0-.79-.14,1,1,0,0,0-.47.28,1.09,1.09,0,0,0-.22.51,1.86,1.86,0,0,0,.07.75A1.52,1.52,0,0,0,24,13.9Zm-.15-1.67a.51.51,0,0,1,.35-.32.5.5,0,0,1,.45.1,1,1,0,0,1,.32.58,1.09,1.09,0,0,1,0,.69.49.49,0,0,1-.33.31.52.52,0,0,1-.46-.1,1.13,1.13,0,0,1-.33-.59A1.1,1.1,0,0,1,23.82,12.23Z"></path><path class="cls-2" d="M26,13.26a.65.65,0,0,0,.3.29.93.93,0,0,0,.52,0,.81.81,0,0,0,.48-.2.66.66,0,0,0,.19-.4,3.44,3.44,0,0,0,0-.73L27.25,11l-.42.06L27,12.39a1.52,1.52,0,0,1,0,.49.3.3,0,0,1-.1.2.37.37,0,0,1-.22.09.4.4,0,0,1-.29-.05.43.43,0,0,1-.16-.24,3.48,3.48,0,0,1-.07-.41L26,11.11l-.41.06.17,1.33A2.18,2.18,0,0,0,26,13.26Z"></path><polygon class="cls-2" points="28.32 13.44 28.3 11.79 29.16 13.43 29.58 13.42 29.54 10.89 29.15 10.9 29.17 12.59 28.3 10.91 27.89 10.92 27.93 13.45 28.32 13.44"></polygon><path class="cls-2" d="M31.14,13.54a.92.92,0,0,0,.3-.18.9.9,0,0,0,.23-.36,1.9,1.9,0,0,0,.15-.55,2.1,2.1,0,0,0,0-.61,1.15,1.15,0,0,0-.14-.42.72.72,0,0,0-.24-.25,1,1,0,0,0-.43-.12l-.75-.1-.33,2.5.78.1A1,1,0,0,0,31.14,13.54Zm-.51-2.11.18,0a1.2,1.2,0,0,1,.34.07.4.4,0,0,1,.18.14.85.85,0,0,1,.09.27,2.38,2.38,0,0,1,0,.44,2.3,2.3,0,0,1-.1.43.79.79,0,0,1-.12.23.37.37,0,0,1-.16.09.74.74,0,0,1-.3,0l-.31,0Z"></path><polygon class="cls-2" points="33.56 13.72 32.44 13.43 32.62 12.77 33.62 13.03 33.73 12.62 32.72 12.36 32.87 11.81 33.95 12.1 34.06 11.68 32.57 11.29 31.93 13.74 33.46 14.13 33.56 13.72"></polygon><path class="cls-2" d="M34.45,14.51a.83.83,0,0,0,.41.09.68.68,0,0,0,.33-.09,1.2,1.2,0,0,0,.32-.29,2.12,2.12,0,0,0,.28-.5,2.28,2.28,0,0,0,.16-.59,1,1,0,0,0,0-.44.72.72,0,0,0-.17-.3,1.08,1.08,0,0,0-.38-.23l-.71-.28-.94,2.34Zm.44-2.08.17.07a1.26,1.26,0,0,1,.31.15.45.45,0,0,1,.14.19.51.51,0,0,1,0,.28,1.53,1.53,0,0,1-.12.42,2.29,2.29,0,0,1-.2.39.84.84,0,0,1-.18.19.41.41,0,0,1-.18.05.84.84,0,0,1-.29-.07L34.26,14Z"></path><path class="cls-2" d="M26.19,17a3.13,3.13,0,0,0,.35-.44,2.07,2.07,0,0,0,.15-.34,1.27,1.27,0,0,0,0-.34.9.9,0,0,0-.2-.57.67.67,0,0,0-.57-.25.75.75,0,0,0-.55.22,1.05,1.05,0,0,0-.25.65l.46.06c0-.31.13-.46.33-.46a.29.29,0,0,1,.23.1.48.48,0,0,1,.08.29.7.7,0,0,1-.1.36,3.76,3.76,0,0,1-.38.47,3.79,3.79,0,0,0-.51.7,1.39,1.39,0,0,0-.16.56h1.62v-.52h-.92a.89.89,0,0,1,.09-.16Z"></path><path class="cls-2" d="M27.26,15.42a2.31,2.31,0,0,0-.21,1.16,2.33,2.33,0,0,0,.21,1.17.67.67,0,0,0,.57.33.64.64,0,0,0,.56-.33,2.21,2.21,0,0,0,.22-1.17,2.19,2.19,0,0,0-.22-1.16.65.65,0,0,0-.56-.34A.67.67,0,0,0,27.26,15.42Zm.35.31a.25.25,0,0,1,.22-.18c.09,0,.16.06.22.18a2.83,2.83,0,0,1,.08.85,2.78,2.78,0,0,1-.08.85c-.06.12-.13.18-.22.18a.25.25,0,0,1-.22-.17,2.87,2.87,0,0,1-.08-.86A2.83,2.83,0,0,1,27.61,15.73Z"></path><path class="cls-2" d="M29.13,15.42a2.31,2.31,0,0,0-.21,1.16,2.33,2.33,0,0,0,.21,1.17.67.67,0,0,0,.57.33.64.64,0,0,0,.56-.33,2.21,2.21,0,0,0,.22-1.17,2.19,2.19,0,0,0-.22-1.16.65.65,0,0,0-.56-.34A.68.68,0,0,0,29.13,15.42Zm.35.31a.25.25,0,0,1,.22-.18c.09,0,.16.06.22.18a2.83,2.83,0,0,1,.08.85,2.78,2.78,0,0,1-.08.85c-.06.12-.13.18-.22.18a.25.25,0,0,1-.22-.17,2.87,2.87,0,0,1-.08-.86A2.83,2.83,0,0,1,29.48,15.73Z"></path><path class="cls-2" d="M32,18v-3H31.6a1.16,1.16,0,0,1-.29.47,1.54,1.54,0,0,1-.4.28v.51a1.58,1.58,0,0,0,.6-.43V18Z"></path></g></g></svg>