<svg width="68" height="27" viewBox="0 0 68 27" fill="none" xmlns="http://www.w3.org/2000/svg">
<path fill-rule="evenodd" clip-rule="evenodd" d="M0.171875 13.5C0.171875 13.1022 0.424877 12.7208 0.875223 12.4395C1.32557 12.1582 1.93637 12.0002 2.57326 12.0002L59.2122 12.0002L44.0979 2.56353C43.647 2.28191 43.3937 1.89995 43.3937 1.50168C43.3937 1.10341 43.647 0.721453 44.0979 0.439833C44.5488 0.158211 45.1604 0 45.7981 0C46.4358 0 47.0474 0.158211 47.4983 0.439833L66.7093 12.4381C66.933 12.5775 67.1104 12.743 67.2315 12.9252C67.3525 13.1074 67.4148 13.3027 67.4148 13.5C67.4148 13.6973 67.3525 13.8926 67.2315 14.0748C67.1104 14.257 66.933 14.4225 66.7093 14.5619L47.4983 26.5602C47.0474 26.8418 46.4358 27 45.7981 27C45.1604 27 44.5488 26.8418 44.0979 26.5602C43.647 26.2785 43.3937 25.8966 43.3937 25.4983C43.3937 25.1 43.647 24.7181 44.0979 24.4365L59.2122 14.9998L2.57326 14.9998C1.93637 14.9998 1.32557 14.8418 0.875223 14.5605C0.424877 14.2792 0.171875 13.8978 0.171875 13.5Z" fill="#D5BB97"/>
</svg>
