<svg width="66" height="65" viewBox="0 0 66 65" fill="none" xmlns="http://www.w3.org/2000/svg">
<g clip-path="url(#clip0_248_637)">
<path fill-rule="evenodd" clip-rule="evenodd" d="M0 32.3706C0 48.3748 11.787 61.683 27.2029 64.3817V41.1319H19.0421V32.1909H27.2029V25.0364C27.2029 16.9887 32.4613 12.5196 39.8986 12.5196C42.2543 12.5196 44.7951 12.8763 47.1509 13.2331V21.4606H42.9807C38.99 21.4606 38.0841 23.4269 38.0841 25.9324V32.1909H46.7891L45.3392 41.1319H38.0841V64.3817C53.5 61.683 65.2871 48.3775 65.2871 32.3706C65.2871 14.5664 50.5975 0 32.6435 0C14.6896 0 0 14.5664 0 32.3706Z" fill="white"/>
</g>
<defs>
<clipPath id="clip0_248_637">
<rect width="65.2871" height="64.3817" fill="white"/>
</clipPath>
</defs>
</svg>
