<svg width="56" height="60" viewBox="0 0 56 60" fill="none" xmlns="http://www.w3.org/2000/svg">
<path d="M29.7099 36.4197C29.2824 36.4197 28.9262 36.2864 28.6412 36.02C26.7888 34.4213 25.9338 32.4896 26.0763 30.2248C26.0763 28.4929 26.5038 26.8943 27.3588 25.4288C27.5013 25.0291 27.7506 24.796 28.1069 24.7294C28.4631 24.6628 28.8193 24.7294 29.1756 24.9292C29.5318 25.1291 29.7455 25.3955 29.8168 25.7286C29.888 26.0616 29.8524 26.3614 29.7099 26.6278C29.1399 27.2939 28.7837 28.2265 28.6412 29.4255C28.3562 31.2906 28.9975 32.8893 30.5649 34.2215C30.9924 34.6211 31.0992 35.0874 30.8855 35.6203C30.6718 36.1532 30.2087 36.4197 29.4962 36.4197H29.7099ZM5.98473 41.8152C4.4173 41.6819 3.06361 41.0824 1.92366 40.0167C0.641221 38.8177 0 37.3189 0 35.5204C0 33.7219 0.641221 32.2231 1.92366 31.0241L15.3893 18.2348C15.9593 17.8351 16.458 17.5021 16.8855 17.2356C17.313 16.9692 17.7048 16.9026 18.0611 17.0358C18.4173 17.169 18.6667 17.3689 18.8092 17.6353C18.9517 17.9017 18.9873 18.2015 18.916 18.5346C18.8448 18.8676 18.631 19.1341 18.2748 19.3339C17.9186 19.5337 17.598 19.7669 17.313 20.0333L3.84733 32.8226C2.99237 33.4888 2.56489 34.388 2.56489 35.5204C2.56489 36.6528 2.99237 37.552 3.84733 38.2182C4.27481 38.751 4.84478 39.0841 5.55725 39.2173L9.61832 35.4205C9.90331 35.154 10.2595 35.0208 10.687 35.0208L12.6107 35.4205L13.6794 34.4213V31.224C13.6794 30.9575 13.8219 30.6911 14.1069 30.4246C14.3919 30.1582 14.6768 30.025 14.9618 30.025L18.5954 29.8251L23.2977 25.4288L23.7252 25.0291C23.8677 24.7627 24.117 24.5962 24.4733 24.5296C24.8295 24.4629 25.1858 24.5296 25.542 24.7294C25.8982 24.9292 26.112 25.1957 26.1832 25.5287C26.2545 25.8618 26.1476 26.1615 25.8626 26.428L25.2214 27.2273L20.0916 32.0233C19.8066 32.2898 19.5216 32.423 19.2366 32.423H16.458V35.0208C16.458 35.4205 16.3155 35.6869 16.0305 35.8202L14.1069 37.8185C13.8219 38.0849 13.4656 38.1515 13.0382 38.0183L11.1145 37.8185L7.05343 41.6153C6.76845 41.7485 6.41221 41.8152 5.98473 41.8152ZM30.1374 27.4271C27.5725 27.4271 25.1857 26.8943 22.9771 25.8285C20.7684 24.7627 18.9517 23.2639 17.5267 21.3322C16.1018 19.4005 15.2824 17.2356 15.0687 14.8376C14.855 12.4396 15.2468 10.1749 16.2443 8.0433C17.2417 5.91174 18.7379 4.14655 20.7328 2.74771C22.7277 1.34888 25.0076 0.449627 27.5725 0.0499611C28 -0.0832634 28.3919 0.0499611 28.7481 0.449627C29.1043 0.849293 29.2112 1.28226 29.0687 1.74854C28.9262 2.21482 28.57 2.51457 28 2.6478C24.8651 3.04746 22.3359 4.4463 20.4122 6.8443C18.4885 9.2423 17.7405 11.9401 18.1679 14.9376C18.5954 17.9351 20.0204 20.3664 22.4427 22.2315C24.8651 24.0966 27.6438 24.9625 30.7786 24.8293C33.9135 24.6961 36.5852 23.5304 38.7939 21.3322C41.0025 19.1341 42.1069 16.5695 42.1069 13.6386C42.1069 11.7735 41.6794 10.0416 40.8244 8.44297C39.9695 6.8443 38.687 5.51207 36.9771 4.4463C36.6921 4.17985 36.5496 3.8801 36.5496 3.54705C36.5496 3.21399 36.6565 2.91424 36.8702 2.6478C37.084 2.38135 37.369 2.21482 37.7252 2.14821C38.0814 2.0816 38.402 2.18152 38.687 2.44796C41.2519 4.17985 43.0687 6.44463 44.1374 9.2423C45.2061 12.04 45.2417 14.8709 44.2443 17.7352C43.2468 20.5995 41.4656 22.9309 38.9008 24.7294C36.3359 26.5279 33.4148 27.4271 30.1374 27.4271ZM33.1298 2.6478C32.9873 2.6478 32.8092 2.61449 32.5954 2.54788C32.3817 2.48127 32.1679 2.31474 31.9542 2.04829C31.7405 1.78185 31.6692 1.4488 31.7405 1.04913C31.8117 0.64946 32.0967 0.349709 32.5954 0.149876C33.0941 -0.0499573 33.5573 0.016655 33.9847 0.349709C34.4122 0.682766 34.5547 1.04913 34.4122 1.4488C34.2697 1.84846 34.0916 2.14821 33.8779 2.34805C33.6641 2.54788 33.3435 2.6478 32.916 2.6478H33.1298ZM32.0611 16.0366C30.4936 16.0366 29.2112 15.5704 28.2137 14.6378C27.2163 13.7052 26.7176 12.5396 26.7176 11.1407C26.7176 9.74188 27.2163 8.54288 28.2137 7.54372C29.2112 6.54455 30.458 6.04496 31.9542 6.04496C33.4504 6.04496 34.7328 6.54455 35.8015 7.54372C36.8702 8.54288 37.4046 9.74188 37.4046 11.1407C37.4046 12.5396 36.8702 13.7052 35.8015 14.6378C34.7328 15.5704 33.486 16.0366 32.0611 16.0366ZM32.0611 8.6428C31.3486 8.6428 30.7074 8.87594 30.1374 9.34222C29.5674 9.80849 29.2824 10.3747 29.2824 11.0408C29.2824 11.7069 29.5674 12.3064 30.1374 12.8393C30.7074 13.3722 31.3486 13.6386 32.0611 13.6386C32.7735 13.6386 33.3791 13.3722 33.8779 12.8393C34.3766 12.3064 34.626 11.7069 34.626 11.0408C34.626 10.3747 34.3766 9.80849 33.8779 9.34222C33.3791 8.87594 32.7735 8.6428 32.0611 8.6428ZM49.374 60C49.0891 60 48.8041 59.8668 48.5191 59.6003C48.2341 59.3339 48.0916 59.0674 48.0916 58.801V44.6128V44.0133C47.9491 43.6137 48.0204 43.2473 48.3053 42.9142C48.5903 42.5812 48.9466 42.4813 49.374 42.6145H50.8702L36.5496 31.6236L22.0153 42.4147H23.5114C24.0814 42.4147 24.4733 42.5812 24.687 42.9142C24.9008 43.2473 25.0076 43.6137 25.0076 44.0133L24.7939 44.6128V58.801C24.7939 59.0674 24.687 59.3339 24.4733 59.6003C24.2595 59.8668 23.9389 60 23.5114 60C23.084 60 22.7634 59.8668 22.5496 59.6003C22.3359 59.3339 22.229 59.0674 22.229 58.801V45.0125H18.1679C17.598 45.0125 17.2061 44.746 16.9924 44.2132C16.7786 43.6803 16.8855 43.214 17.313 42.8143L35.6947 29.0258C35.8372 28.8926 36.0865 28.826 36.4427 28.826C36.799 28.826 37.1196 28.8926 37.4046 29.0258L55.5725 42.8143C56 43.214 56.1069 43.6803 55.8931 44.2132C55.6794 44.746 55.2875 45.0125 54.7176 45.0125H50.8702V58.801C50.8702 59.0674 50.7277 59.3339 50.4427 59.6003C50.1578 59.8668 49.8015 60 49.374 60ZM36.5496 40.2165C36.2646 40.2165 35.9796 40.0833 35.6947 39.8168C35.4097 39.5504 35.2672 39.2506 35.2672 38.9176C35.2672 38.5845 35.4097 38.2848 35.6947 38.0183C40.5394 34.0216 42.7481 29.9584 42.3206 25.8285C41.8931 22.4979 39.9695 19.234 36.5496 16.0366C34.8397 14.438 33.1298 13.1724 31.4198 12.2398C30.8499 11.9734 30.5649 11.5737 30.5649 11.0408C30.5649 10.5079 30.8142 10.1415 31.313 9.94172C31.8117 9.74188 32.2748 9.77519 32.7023 10.0416C34.6972 11.1074 36.6209 12.5729 38.4733 14.438C42.3206 18.035 44.458 21.6986 44.8855 25.4288C45.4555 30.4913 42.9618 35.3539 37.4046 40.0167C37.2621 40.1499 36.9771 40.2165 36.5496 40.2165ZM39.9695 59.6003C39.6845 59.6003 39.3995 59.5004 39.1145 59.3006C38.8295 59.1007 38.687 58.801 38.687 58.4013V50.8077C38.687 50.2748 38.5089 49.8418 38.1527 49.5087C37.7964 49.1757 37.3333 49.0092 36.7634 49.0092H35.2672C34.6972 49.0092 34.2341 49.1757 33.8779 49.5087C33.5216 49.8418 33.3435 50.2748 33.3435 50.8077V58.4013C33.3435 58.801 33.201 59.1007 32.916 59.3006C32.631 59.5004 32.3104 59.6003 31.9542 59.6003C31.598 59.6003 31.2774 59.5004 30.9924 59.3006C30.7074 59.1007 30.5649 58.801 30.5649 58.4013V50.8077C30.5649 49.6087 31.028 48.5762 31.9542 47.7102C32.8804 46.8443 33.9847 46.4113 35.2672 46.4113H36.7634C38.0458 46.4113 39.1501 46.8443 40.0763 47.7102C41.0025 48.5762 41.3944 49.6087 41.2519 50.8077V58.4013C41.3944 58.801 41.3232 59.1007 41.0382 59.3006C40.7532 59.5004 40.3969 59.6003 39.9695 59.6003Z" fill="#1A1A1A"/>
</svg>
