<svg width="67" height="65" viewBox="0 0 67 65" fill="none" xmlns="http://www.w3.org/2000/svg">
<path d="M33.5019 1.2876C16.1943 1.2876 2.16406 15.1232 2.16406 32.1908C2.16406 49.2584 16.1943 63.094 33.5019 63.094C50.8095 63.094 64.8397 49.2584 64.8397 32.1908C64.8397 15.1232 50.8095 1.2876 33.5019 1.2876ZM25.8306 44.9996H19.4847V24.861H25.8306V44.9996ZM22.6185 22.3887C20.6142 22.3887 19.3182 20.9884 19.3182 19.2565C19.3182 17.4893 20.6534 16.1308 22.7001 16.1308C24.7469 16.1308 26.0004 17.4893 26.0395 19.2565C26.0395 20.9884 24.7469 22.3887 22.6185 22.3887ZM49.0075 44.9996H42.6616V33.839C42.6616 31.2412 41.7411 29.4771 39.4463 29.4771C37.6933 29.4771 36.652 30.6714 36.1917 31.8206C36.0219 32.2295 35.9795 32.8089 35.9795 33.3851V44.9963H29.6303V31.283C29.6303 28.7689 29.5487 26.6669 29.4639 24.8577H34.9774L35.2679 27.6551H35.3952C36.2309 26.3417 38.2776 24.4039 41.7019 24.4039C45.877 24.4039 49.0075 27.1626 49.0075 33.0922V44.9996Z" fill="white"/>
</svg>
