<svg width="63" height="59" viewBox="0 0 63 59" fill="none" xmlns="http://www.w3.org/2000/svg">
<g clip-path="url(#clip0_233_44)">
<path d="M23.0396 43.5759C23.0396 43.9692 23.1796 44.2642 23.4596 44.4609C23.7396 44.6576 24.0196 44.7559 24.2996 44.7559C24.5796 44.7559 24.8596 44.6576 25.1396 44.4609C25.4196 44.2642 25.5596 44.002 25.5596 43.6742C25.5596 43.3465 25.4196 43.0842 25.1396 42.8876C24.8596 42.6909 24.5796 42.5926 24.2996 42.5926C24.0196 42.5926 23.7396 42.6909 23.4596 42.8876C23.1796 43.0842 23.0396 43.3137 23.0396 43.5759ZM29.3396 43.5759C29.3396 43.9692 29.4796 44.2642 29.7596 44.4609C30.0396 44.6576 30.3196 44.7559 30.5996 44.7559C30.8796 44.7559 31.1596 44.6576 31.4396 44.4609C31.7196 44.2642 31.8596 44.002 31.8596 43.6742C31.8596 43.3465 31.7196 43.0842 31.4396 42.8876C31.1596 42.6909 30.8796 42.5926 30.5996 42.5926C30.3196 42.5926 30.0396 42.6909 29.7596 42.8876C29.4796 43.0842 29.3396 43.3137 29.3396 43.5759ZM35.6396 43.5759C35.6396 43.9692 35.7796 44.2642 36.0596 44.4609C36.3396 44.6576 36.6196 44.7559 36.8996 44.7559C37.1796 44.7559 37.4596 44.6576 37.7396 44.4609C38.0196 44.2642 38.1596 44.002 38.1596 43.6742C38.1596 43.3465 38.0196 43.0842 37.7396 42.8876C37.4596 42.6909 37.1796 42.5926 36.8996 42.5926C36.6196 42.5926 36.3396 42.6909 36.0596 42.8876C35.7796 43.0842 35.6396 43.3137 35.6396 43.5759ZM10.8596 44.7559C9.17961 44.7559 7.63961 44.3298 6.23961 43.4776C4.83961 42.6253 3.82461 41.4781 3.19461 40.0359C2.56461 38.5937 2.42461 37.0859 2.77461 35.5126C3.12461 33.9392 3.89461 32.5953 5.08461 31.4809C6.27461 30.3665 7.67461 29.6781 9.28461 29.4159C10.8946 29.1537 12.4696 29.3176 14.0096 29.9076C15.5496 30.4976 16.8096 31.4481 17.7896 32.7592C18.7696 34.0703 19.2596 35.5126 19.2596 37.0859C19.2596 39.1837 18.4546 40.9865 16.8446 42.4942C15.2346 44.002 13.2396 44.7559 10.8596 44.7559ZM10.8596 31.5792C9.73961 31.5792 8.68961 31.8742 7.70961 32.4642C6.72961 33.0542 5.99461 33.8737 5.50461 34.9226C5.01461 35.9715 4.90961 37.0531 5.18961 38.1676C5.46961 39.282 6.02961 40.1998 6.86961 40.9209C7.70961 41.642 8.68961 42.1337 9.80961 42.3959C10.9296 42.6581 12.0496 42.5598 13.1696 42.1009C14.2896 41.642 15.1646 40.9537 15.7946 40.0359C16.4246 39.1181 16.7396 38.1348 16.7396 37.0859C16.7396 35.5126 16.1796 34.2015 15.0596 33.1526C13.9396 32.1037 12.5396 31.5792 10.8596 31.5792ZM21.5696 58.7192H0.359609C-0.0603907 58.7192 -0.375391 58.6209 -0.585391 58.4242C-0.795391 58.2276 -0.900391 57.9326 -0.900391 57.5392V53.6059C-0.900391 50.5903 0.254609 48.0009 2.56461 45.8376C4.87461 43.6742 7.67461 42.5926 10.9646 42.5926C14.2546 42.5926 17.0196 43.6742 19.2596 45.8376C21.4996 48.0009 22.6896 50.5903 22.8296 53.6059V57.5392C22.8296 57.9326 22.6896 58.2276 22.4096 58.4242C22.1296 58.6209 21.8496 58.7192 21.5696 58.7192ZM1.61961 56.3592H20.3096V53.6059C20.3096 51.2459 19.3996 49.2137 17.5796 47.5092C15.7596 45.8048 13.5546 44.9526 10.9646 44.9526C8.37461 44.9526 6.16961 45.8048 4.34961 47.5092C2.52961 49.2137 1.61961 51.2459 1.61961 53.6059V56.3592ZM50.3396 44.7559C48.6596 44.7559 47.1196 44.3298 45.7196 43.4776C44.3196 42.6253 43.3046 41.4781 42.6746 40.0359C42.0446 38.5937 41.8696 37.0859 42.1496 35.5126C42.4296 33.9392 43.1646 32.5953 44.3546 31.4809C45.5446 30.3665 46.9796 29.6781 48.6596 29.4159C50.3396 29.1537 51.9496 29.3176 53.4896 29.9076C55.0296 30.4976 56.2546 31.4481 57.1646 32.7592C58.0746 34.0703 58.5296 35.5126 58.5296 37.0859C58.5296 39.1837 57.7246 40.9865 56.1146 42.4942C54.5046 44.002 52.5796 44.7559 50.3396 44.7559ZM50.3396 31.5792C49.0796 31.5792 47.9596 31.8742 46.9796 32.4642C45.9996 33.0542 45.2996 33.8737 44.8796 34.9226C44.4596 35.9715 44.3546 37.0531 44.5646 38.1676C44.7746 39.282 45.2996 40.1998 46.1396 40.9209C46.9796 41.642 47.9946 42.1337 49.1846 42.3959C50.3746 42.6581 51.4946 42.5598 52.5446 42.1009C53.5946 41.642 54.4346 40.9537 55.0646 40.0359C55.6946 39.1181 56.0096 38.1348 56.0096 37.0859C56.0096 35.5126 55.4496 34.2015 54.3296 33.1526C53.2096 32.1037 51.8796 31.5792 50.3396 31.5792ZM60.8396 58.7192H39.6296C39.3496 58.7192 39.0696 58.6209 38.7896 58.4242C38.5096 58.2276 38.3696 57.9326 38.3696 57.5392V53.6059C38.5096 50.5903 39.6996 48.0009 41.9396 45.8376C44.1796 43.6742 46.9446 42.5926 50.2346 42.5926C53.5246 42.5926 56.3246 43.6742 58.6346 45.8376C60.9446 48.0009 62.0996 50.5903 62.0996 53.6059V57.5392C62.0996 57.9326 61.9946 58.2276 61.7846 58.4242C61.5746 58.6209 61.2596 58.7192 60.8396 58.7192ZM40.8896 56.3592H59.5796V53.6059C59.5796 51.2459 58.6696 49.2137 56.8496 47.5092C55.0296 45.8048 52.8246 44.9526 50.2346 44.9526C47.6446 44.9526 45.4396 45.8048 43.6196 47.5092C41.7996 49.2137 40.8896 51.2459 40.8896 53.6059V56.3592ZM24.9296 36.6926C24.6496 36.6926 24.3696 36.5942 24.0896 36.3976C23.8096 36.2009 23.6696 35.9715 23.6696 35.7092V32.1692H22.6196C21.4996 32.1692 20.5196 31.8087 19.6796 31.0876C18.8396 30.3665 18.4196 29.4815 18.4196 28.4326V17.2226C18.4196 16.1737 18.8396 15.2887 19.6796 14.5676C20.5196 13.8465 21.4996 13.4859 22.6196 13.4859H38.3696C39.4896 13.4859 40.4346 13.8465 41.2046 14.5676C41.9746 15.2887 42.3596 16.1737 42.3596 17.2226V28.4326C42.3596 29.4815 41.9746 30.3665 41.2046 31.0876C40.4346 31.8087 39.4896 32.1692 38.3696 32.1692H30.3896L25.7696 36.4959C25.6296 36.7581 25.3496 36.8237 24.9296 36.6926ZM22.6196 15.8459C22.1996 15.8459 21.8146 15.977 21.4646 16.2392C21.1146 16.5015 20.9396 16.8292 20.9396 17.2226V28.4326C20.9396 28.8259 21.1146 29.1865 21.4646 29.5142C21.8146 29.842 22.1996 30.0059 22.6196 30.0059H24.9296C25.3496 30.0059 25.6646 30.1042 25.8746 30.3009C26.0846 30.4976 26.1896 30.727 26.1896 30.9892V32.7592L28.9196 30.2026C29.1996 30.0715 29.4796 30.0059 29.7596 30.0059H38.3696C38.7896 30.0059 39.1746 29.842 39.5246 29.5142C39.8746 29.1865 40.0496 28.8259 40.0496 28.4326V17.2226C40.0496 16.8292 39.8746 16.5015 39.5246 16.2392C39.1746 15.977 38.7896 15.8459 38.3696 15.8459H22.6196Z" fill="#1A1A1A"/>
</g>
<defs>
<clipPath id="clip0_233_44">
<rect width="63" height="59" fill="white" transform="matrix(1 0 0 -1 0 59)"/>
</clipPath>
</defs>
</svg>
