<svg width="15" height="13" viewBox="0 0 15 13" fill="none" xmlns="http://www.w3.org/2000/svg">
<path d="M0.75635 5.42875H12.767L8.16793 1.0495C7.92711 0.820181 7.91777 0.439197 8.14715 0.198447C8.37623 -0.0420024 8.75733 -0.0516325 8.99845 0.177682L14.2508 5.17927C14.478 5.40677 14.6036 5.70891 14.6036 6.03062C14.6036 6.35202 14.478 6.65446 14.2402 6.8919L8.99815 11.8833C8.88166 11.9942 8.73235 12.0493 8.58304 12.0493C8.4241 12.0493 8.26516 11.9868 8.14685 11.8625C7.91748 11.6218 7.92681 11.2411 8.16763 11.0118L12.786 6.6325H0.75635C0.424017 6.6325 0.154297 6.36286 0.154297 6.03062C0.154297 5.69839 0.424017 5.42875 0.75635 5.42875Z" fill="#1A1A1A"/>
</svg>
