<svg xmlns="http://www.w3.org/2000/svg" viewBox="0 0 365.46 374.29"><defs><style>.cls-1{fill:#87c1eb;}.cls-2{fill:#fff;}.cls-3{fill:#1d1d1b;}</style></defs><title>logo-vatel-fond-blanc</title><g id="Calque_2" data-name="Calque 2"><g id="Calque_1-2" data-name="Calque 1"><rect class="cls-1" x="34.81" y="185.31" width="292.75" height="91.07"/><polygon class="cls-2" points="77.49 258.35 75.25 258.35 57.43 209.3 51.32 209.3 51.32 207.44 74.95 207.44 74.95 209.3 67.27 209.3 79.95 244.19 92.55 209.3 84.79 209.3 84.79 207.44 100.98 207.44 100.98 209.3 94.79 209.3 77.49 258.35"/><path class="cls-2" d="M114,240.31h14.54l-7-20.8Zm-13.72,16.93v-1.87h6l17.82-49.06h2.53l17.07,49.06h6v1.87H126.08v-1.87h7.75l-4.55-13.2h-16.1l-4.62,13.2h7.61v1.87Z"/><path class="cls-2" d="M165.53,257.24v-1.87h7.83V209.3c-10.51-.52-13.73,4.55-15.07,14.09h-2.39l.82-16h42.73l.83,16H198c-1.35-9.54-4.55-14.61-15.06-14.09v46.08h7.82v1.87Z"/><path class="cls-2" d="M230,209.3v21.39c7.16,0,11-1.11,11.34-9.09h2.09v20.8h-2.09c-.67-8.27-3.28-10.07-11.34-9.84v22.82h10.59c9.69,0,11.78-5.74,13.34-14.17h2.16l-.67,16H213v-1.87h7.46V209.3H213v-1.86h41.23l.45,13.42h-2.1c-1.56-7.16-4.39-9.93-8.2-11a25,25,0,0,0-6.49-.59Z"/><path class="cls-2" d="M270.25,257.24v-1.87h7.38V209.3h-7.38v-1.86h24.68v1.86h-7.76v46.08h9.77c9.47,0,12.83-6.33,13.13-14.91h2.3l-.74,16.78Z"/><rect class="cls-3" x="34.81" width="292.75" height="188.08"/><polygon class="cls-2" points="183.72 166.41 177.62 166.41 129.06 32.72 112.4 32.72 112.4 27.65 176.81 27.65 176.81 32.72 155.87 32.72 190.42 127.81 224.76 32.72 203.63 32.72 203.63 27.65 247.72 27.65 247.72 32.72 230.85 32.72 183.72 166.41"/><path class="cls-3" d="M355.9,341.51H352V373h13.49v-3.59H355.9ZM330.85,370a12.64,12.64,0,0,1-12.57-12.73,12.57,12.57,0,1,1,25.14,0A12.64,12.64,0,0,1,330.85,370m0-29.14a16.54,16.54,0,0,0-16.49,16.41,16.49,16.49,0,0,0,33,0,16.54,16.54,0,0,0-16.49-16.41M295.44,370a12.64,12.64,0,0,1-12.57-12.73,12.57,12.57,0,1,1,25.14,0A12.64,12.64,0,0,1,295.44,370m0-29.14a16.54,16.54,0,0,0-16.49,16.41,16.49,16.49,0,0,0,33,0,16.54,16.54,0,0,0-16.49-16.41m-39.71,13.36V341.51h-3.93V373h3.93V357.88h15V373h3.92V341.51h-3.92v12.69ZM246.63,343a15.19,15.19,0,0,0-7.93-2.13A16.55,16.55,0,0,0,222,357.42a16.3,16.3,0,0,0,16.41,16.24,17,17,0,0,0,8.27-2.21v-4.64a12.66,12.66,0,1,1-8.31-22.38,12.72,12.72,0,0,1,8.31,3.09Zm-29.06,2.63a9,9,0,0,0-8.1-4.76c-4.76,0-9.27,3-9.27,8.14,0,4.38,3.26,6.43,6.85,8l2.17.92c2.71,1.13,5.43,2.59,5.43,6a6,6,0,1,1-11.9.17l-4,.84a9.81,9.81,0,0,0,9.73,8.81,9.7,9.7,0,0,0,10.06-9.81c0-5.26-3.34-7.72-7.81-9.48l-2.25-.88c-2-.75-4.38-2-4.38-4.51,0-2.76,2.76-4.47,5.26-4.47a5.39,5.39,0,0,1,5.05,3Zm-34.95,0a9,9,0,0,0-8.1-4.76c-4.76,0-9.27,3-9.27,8.14,0,4.38,3.26,6.43,6.85,8l2.17.92c2.71,1.13,5.43,2.59,5.43,6a6,6,0,1,1-11.9.17l-4,.84a9.81,9.81,0,0,0,9.73,8.81,9.71,9.71,0,0,0,10.06-9.81c0-5.26-3.34-7.72-7.81-9.48l-2.25-.88c-2-.75-4.38-2-4.38-4.51,0-2.76,2.76-4.47,5.26-4.47a5.39,5.39,0,0,1,5.05,3Zm-23.26,0a9,9,0,0,0-8.1-4.76c-4.76,0-9.27,3-9.27,8.14,0,4.38,3.26,6.43,6.85,8l2.17.92c2.71,1.13,5.43,2.59,5.43,6a6,6,0,1,1-11.9.17l-4,.84a9.81,9.81,0,0,0,9.73,8.81,9.7,9.7,0,0,0,10.06-9.81c0-5.26-3.34-7.72-7.81-9.48l-2.25-.88c-2-.75-4.38-2-4.38-4.51,0-2.76,2.76-4.47,5.26-4.47a5.4,5.4,0,0,1,5.05,3ZM119.66,373h16.91v-3.59h-13v-11.9H136.2v-3.59H123.59V345.1h13v-3.59H119.66Zm-34,0H89.6V349.53l23.63,24.76V341.51h-3.92v23.26L85.68,340Zm-6.35-31.48H75.4V373h3.93Zm-9.94,4.09a9,9,0,0,0-8.1-4.76c-4.76,0-9.27,3-9.27,8.14,0,4.38,3.26,6.43,6.85,8l2.17.92c2.71,1.13,5.43,2.59,5.43,6a6,6,0,1,1-11.9.17l-4,.84a9.81,9.81,0,0,0,9.73,8.81,9.71,9.71,0,0,0,10.06-9.81c0-5.26-3.34-7.72-7.81-9.48l-2.25-.88c-2-.75-4.38-2-4.38-4.51,0-2.76,2.76-4.47,5.26-4.47a5.39,5.39,0,0,1,5.05,3ZM23,341.51v19.92c0,6.93,4.3,12.23,11.52,12.23S46,368.36,46,361.43V341.51H42.09v18.58c0,5.14-1.54,9.9-7.6,9.9s-7.6-4.76-7.6-9.9V341.51ZM0,373H7.35c5.55,0,10.94-2.51,10.94-8.81a8.1,8.1,0,0,0-6.31-8v-.08c2.13-1,3.38-3.67,3.38-6,0-7.1-5.6-8.64-11.52-8.64H0Zm3.92-14.4H6.35c3.51,0,8,.92,8,5.34s-3.8,5.55-7.43,5.55h-3Zm0-13.57H5c3.67,0,6.68.75,6.68,5.18s-3,5.26-6.76,5.26h-1Z"/><path class="cls-3" d="M337.15,329l9.44-21.46h.08l3.67,20.79h4L348,295.56l-10.81,24.8-10.81-24.8-6.43,32.82H324l3.67-20.79h.08ZM316.44,301a9,9,0,0,0-8.1-4.76c-4.76,0-9.27,3-9.27,8.14,0,4.38,3.26,6.43,6.85,8l2.17.92c2.71,1.13,5.43,2.59,5.43,6a6,6,0,1,1-11.9.17l-4,.84a9.81,9.81,0,0,0,9.73,8.81,9.7,9.7,0,0,0,10.06-9.81c0-5.26-3.34-7.72-7.81-9.48l-2.25-.88c-2-.75-4.38-2-4.38-4.51,0-2.76,2.76-4.47,5.26-4.47a5.39,5.39,0,0,1,5.05,3Zm-23.63-4.09h-3.92v31.48h3.92Zm-23.17,3.51h1c3.88,0,8.56.71,8.56,5.64s-4.34,5.76-8.35,5.76h-1.25Zm5.72,14.28a8.57,8.57,0,0,0,7.56-8.81,8.71,8.71,0,0,0-4.13-7.52c-2.51-1.42-5.51-1.46-8.31-1.46h-4.76v31.48h3.92V315.06h1.63l9.27,13.32h4.76Zm-38.75-17.79v19.92c0,6.93,4.3,12.23,11.52,12.23s11.52-5.3,11.52-12.23V296.89h-3.92v18.58c0,5.14-1.54,9.9-7.6,9.9s-7.6-4.76-7.6-9.9V296.89Zm-20.37,28.48a12.64,12.64,0,0,1-12.57-12.74,12.57,12.57,0,1,1,25.14,0,12.64,12.64,0,0,1-12.57,12.74m0-29.14a16.54,16.54,0,0,0-16.49,16.41,16.49,16.49,0,0,0,33,0,16.54,16.54,0,0,0-16.49-16.41m-25.47,4.26h7.47v-3.59H179.37v3.59h7.47v27.89h3.93Zm-26.05,27.89h4.84l-5.64-7,3.84-4.51-2.51-2.59-3.67,4.26L155,310.63c2.63-1.92,5.72-4.3,5.72-7.85,0-4.13-3.42-6.56-7.26-6.56-4.13,0-7.26,2.55-7.26,6.89,0,2.67,1.67,5,3.46,6.89l-2,1.42c-3,2.17-5.51,4.34-5.51,8.35,0,5.43,4.38,9.27,9.65,9.27,3.72,0,7.06-2.13,9.44-4.93Zm-11.9-20.46-1-1.34c-.92-1.17-1.88-2.34-1.88-3.93a3.36,3.36,0,0,1,3.51-3.34c2.09,0,3.68,1.21,3.68,3.42s-2.17,3.59-3.76,4.84Zm-.83,4.93,7,8.52c-2,2-4.3,4.18-7.22,4.18a6.12,6.12,0,0,1-5.85-5.8c0-3,3.55-5.14,5.72-6.64Zm-31.52-15.95h-3.93v31.48H130v-3.59h-9.56Zm-26.3,31.48h16.91v-3.59h-13v-11.9h12.61v-3.59H98.08v-8.81h13v-3.59H94.15ZM83,300.48h7.47v-3.59H71.56v3.59H79v27.89H83ZM53.57,325.37A12.64,12.64,0,0,1,41,312.63a12.57,12.57,0,1,1,25.13,0,12.64,12.64,0,0,1-12.57,12.74m0-29.14a16.54,16.54,0,0,0-16.49,16.41,16.49,16.49,0,0,0,33,0,16.54,16.54,0,0,0-16.49-16.41m-39.5,13.36V296.89H10.15v31.48h3.93V313.26h15v15.11H33V296.89H29.06v12.69Z"/></g></g></svg>