<svg width="66" height="65" viewBox="0 0 66 65" fill="none" xmlns="http://www.w3.org/2000/svg">
<path d="M33.3573 1.2876C16.0497 1.2876 2.01953 15.1232 2.01953 32.1908C2.01953 49.2584 16.0497 63.094 33.3573 63.094C50.6649 63.094 64.6951 49.2584 64.6951 32.1908C64.6951 15.1232 50.6649 1.2876 33.3573 1.2876ZM46.1046 26.6025C46.1177 26.8665 46.121 27.1304 46.121 27.3879C46.121 35.4357 39.9154 44.7098 28.562 44.7098C25.2072 44.7153 21.9222 43.7652 19.1019 41.9736C19.5818 42.0316 20.0747 42.0541 20.5741 42.0541C23.4663 42.0541 26.1268 41.0852 28.2388 39.4499C26.9517 39.4249 25.7046 39.0047 24.6712 38.2476C23.6379 37.4905 22.8698 36.4344 22.474 35.2264C23.3983 35.3997 24.3505 35.3634 25.2585 35.1202C23.8615 34.8416 22.6052 34.0952 21.7026 33.0074C20.8001 31.9196 20.3068 30.5575 20.3064 29.152V29.078C21.1389 29.5319 22.092 29.8087 23.104 29.8409C21.7943 28.9812 20.8672 27.6605 20.5122 26.149C20.1573 24.6375 20.4013 23.0494 21.1943 21.7095C22.7448 23.5894 24.6783 25.1273 26.8697 26.2236C29.061 27.3199 31.4615 27.9502 33.9155 28.0736C33.6035 26.7677 33.7378 25.3966 34.2975 24.1737C34.8572 22.9508 35.8109 21.9444 37.0104 21.3112C38.2099 20.6779 39.5879 20.4531 40.9303 20.6719C42.2727 20.8906 43.5041 21.5406 44.4333 22.5207C45.8147 22.2512 47.1394 21.7515 48.3505 21.0431C47.8901 22.4535 46.9262 23.6512 45.6378 24.4135C46.8615 24.2682 48.0563 23.9438 49.1829 23.451C48.3554 24.6739 47.3129 25.7412 46.1046 26.6025Z" fill="white"/>
</svg>
